<svg width="139" height="312" viewBox="0 0 139 312" fill="none" xmlns="http://www.w3.org/2000/svg">
<path d="M14.2466 1.52148C6.65253 5.17432 2.03843 12.6722 0.404268 24.1114C-2.96018 48.1432 15.0156 81.4032 41.6428 100.244C49.1407 105.531 48.9485 105.243 46.4492 107.934C43.3731 111.203 44.6228 114.855 49.8136 117.643C53.2742 119.373 53.7548 120.046 54.5239 124.66C55.6774 131.582 54.0432 139.848 49.9098 148.308C46.5453 154.94 45.2957 156.575 30.8766 173.685C22.129 183.971 19.9181 188.008 18.7646 195.41C16.842 207.137 21.4561 215.789 33.8565 223.767C36.5481 225.402 45.7763 230.016 54.5239 233.861C75.1912 243.089 77.6905 244.435 83.4581 248.761C89.5141 253.182 93.0708 259.719 94.5127 268.467C96.0508 277.695 95.0895 285.673 90.956 299.035C88.1684 308.071 87.6877 310.57 88.649 311.532C90.2832 313.07 91.7251 311.051 95.474 302.015C100.377 290.287 101.434 284.231 101.049 272.408C100.761 263.372 100.28 260.873 98.1656 256.355C92.8786 244.915 86.9187 240.494 62.0218 229.343C40.4893 219.73 34.241 216.27 29.3385 210.983C24.4361 205.599 23.3787 200.505 25.6857 192.622C27.3199 187.239 31.6456 181.183 44.4305 166.572C55.1967 154.268 60.5799 141.002 59.6186 129.082C59.2341 125.429 58.7535 121.392 58.4651 120.335C57.9844 118.701 58.3689 118.124 60.2915 117.643C64.1366 116.682 66.6359 113.702 66.6359 109.953C66.6359 106.781 66.6359 106.685 75.5757 103.609C108.067 92.2655 134.406 69.195 137.674 49.2006C140.462 31.8015 129.407 20.4585 109.893 20.6508C99.3191 20.7469 89.6103 24.2075 76.9215 32.3783C71.1539 36.0311 65.963 38.9149 65.3862 38.6266C64.7133 38.4343 61.9256 34.3008 59.0418 29.3983C46.0647 7.57748 26.7431 -4.43842 14.2466 1.52148ZM30.6843 9.88455C38.5667 13.8257 44.1421 19.5934 51.9284 31.417C55.9658 37.5692 60.0992 43.3368 61.2528 44.2019C64.7133 47.0858 68.7507 46.3167 75.3834 41.7026C82.9775 36.6079 93.6476 31.1286 99.1269 29.5906C105.375 27.9565 115.468 28.1487 120.179 30.0713C132.675 35.0699 133.637 47.6625 122.87 62.7545C113.354 76.1161 91.0522 91.881 70.7693 99.6673C66.4436 101.301 61.8295 102.647 60.5799 102.647C57.4077 102.647 42.4118 92.1694 34.6255 84.5753C23.0903 73.2323 14.2466 59.2939 9.34409 44.9709C6.84479 37.7614 6.84479 24.1114 9.24797 17.8631C13.0931 7.96201 20.9755 4.98206 30.6843 9.88455Z" fill="black" fill-opacity="0.64"/>
</svg>
