<svg width="53" height="30" viewBox="0 0 53 30" fill="none" xmlns="http://www.w3.org/2000/svg">
<path d="M48.1186 25.7216C45.9489 27.4805 43.3217 28.373 41.0241 30C40.2519 27.5772 38.5977 26.425 36.7717 24.7972C34.328 22.6186 31.962 16.6448 36.8628 15.7307C38.1692 15.4873 39.48 16.1652 40.4945 17.0235C41.4459 17.8285 42.2458 18.8111 42.8416 19.9057C43.419 17.2322 45.9473 15.11 48.6808 15.0041C49.164 14.9854 49.6608 15.026 50.103 15.2239C50.5117 15.4073 50.8536 15.7173 51.1332 16.0678C52.2986 17.5292 52.3609 19.6638 51.6316 21.3843C50.9007 23.1083 49.6122 24.5275 48.1186 25.7216Z" fill="black"/>
<path d="M28.355 14.6238C28.0511 15.179 27.7356 15.7202 27.4177 16.244C24.8763 20.4355 22.1266 24.4805 19.6114 28.697C19.5432 28.8114 19.4655 28.934 19.3401 28.9803C19.1989 29.0326 19.0433 28.971 18.9058 28.9097C11.5708 25.641 -7.18072 11.0481 2.9227 2.12604C5.12898 0.17771 8.72742 0.657969 11.0588 2.45451C13.3904 4.25106 14.7253 7.02736 15.8471 9.74862C16.5334 7.24727 17.6474 4.8641 19.1258 2.73256C20.7329 0.415964 23.884 -0.425379 26.588 0.199804C33.247 1.73881 30.5669 10.5813 28.355 14.6238Z" fill="black"/>
</svg>
