<svg width="193" height="120" viewBox="0 0 193 120" fill="none" xmlns="http://www.w3.org/2000/svg">
<path d="M145.045 0.151587C145.045 0.227161 145.121 0.302734 145.212 0.302734C145.287 0.302734 145.318 0.227161 145.272 0.151587C145.227 0.0608992 145.151 0.000440359 145.106 0.000440359C145.076 0.000440359 145.045 0.0608992 145.045 0.151587Z" fill="black" fill-opacity="0.65"/>
<path d="M146.285 0.770964C146.315 0.876767 146.436 0.997684 146.542 1.02791C146.663 1.07326 146.723 1.0128 146.678 0.891882C146.648 0.786079 146.527 0.665161 146.421 0.634932C146.3 0.589588 146.24 0.650046 146.285 0.770964Z" fill="black" fill-opacity="0.65"/>
<path d="M186.127 11.5173C185.885 11.5929 185.704 11.744 185.704 11.8498C185.704 11.9556 185.538 12.2277 185.326 12.4544C184.737 13.0892 184.072 14.5705 183.815 15.825C183.679 16.4598 183.543 17.0191 183.512 17.0795C183.467 17.14 183.437 17.7446 183.422 18.4247C183.407 19.0898 183.346 19.649 183.286 19.649C183.15 19.649 182.968 23.6544 182.893 27.9621C182.862 29.7456 182.772 31.5443 182.681 31.9675C182.59 32.3756 182.515 32.8895 182.515 33.086C182.53 33.2825 182.394 33.5394 182.228 33.6603C182.061 33.7813 181.925 33.9626 181.925 34.0684C181.925 34.1742 181.804 34.4312 181.638 34.6277C181.487 34.8242 181.306 35.2172 181.26 35.4741C181.2 35.7462 181.064 35.9729 180.943 35.9729C180.837 35.9729 180.701 36.1543 180.641 36.381C180.535 36.8344 179.295 38.7691 178.872 39.1621C178.721 39.2981 178.6 39.5097 178.6 39.6458C178.6 39.7818 178.525 39.9329 178.449 39.9783C178.358 40.0387 178.328 40.205 178.373 40.3561C178.419 40.5073 178.404 40.6736 178.328 40.7189C178.237 40.7642 178.132 40.6584 178.086 40.4619C177.995 40.1445 177.98 40.1445 177.754 40.5829C177.618 40.8247 177.436 41.0968 177.33 41.1875C177.119 41.3688 176.333 42.5327 176.333 42.6536C176.333 42.6989 176.121 42.971 175.879 43.2431C175.622 43.5 175.441 43.8174 175.486 43.9232C175.532 44.029 175.502 44.1651 175.426 44.2104C175.335 44.2709 175.275 44.1499 175.275 43.9686C175.275 43.6814 175.23 43.6965 174.897 44.1499C174.701 44.4371 174.444 44.8301 174.338 45.0417C174.232 45.2533 173.703 45.873 173.159 46.4171C172.04 47.5507 171.783 47.853 171.814 48.0193C171.889 48.3216 171.602 48.6239 171.33 48.5634C171.118 48.503 170.861 48.6843 170.393 49.2134C170.045 49.6063 169.758 50.0598 169.758 50.1958C169.743 50.5435 168.292 52.1305 168.216 51.8735C168.171 51.7526 167.793 51.6922 167.052 51.6922C166.448 51.6922 165.904 51.6468 165.843 51.5864C165.783 51.5259 165.511 51.4654 165.239 51.4352C164.649 51.405 162.79 50.5435 162.291 50.0749C162.095 49.8935 161.868 49.7726 161.793 49.8179C161.43 50.0447 161.974 49.0018 162.533 48.4123C163.334 47.5659 163.788 46.9764 164.211 46.2055C164.438 45.7672 164.695 45.3591 164.785 45.2684C165.224 44.8754 165.465 42.8803 165.193 41.8827L165.103 41.52L164.815 41.8827L164.528 42.2455L164.619 41.7165C164.71 41.1875 164.71 41.1875 163.863 40.9154C163.41 40.7642 162.971 40.6736 162.896 40.7189C162.715 40.8398 162.473 40.5073 162.397 40.0539C162.337 39.7062 162.322 39.7364 162.17 40.2352C161.974 40.87 161.46 41.6107 161.309 41.4595C161.264 41.4142 161.218 41.4746 161.218 41.6107C161.218 41.7618 161.143 41.8223 160.991 41.7769C160.871 41.7165 160.765 41.7467 160.765 41.8374C160.765 41.913 160.598 42.185 160.402 42.4117C160.205 42.6536 159.601 43.364 159.087 43.9837L158.12 45.1173L158.074 46.1904C158.014 47.1426 158.059 47.3845 158.407 48.0193C158.8 48.7599 158.996 49.9389 158.724 49.9842C158.528 50.0144 158.377 50.4679 158.362 51.0574C158.346 51.6015 157.969 52.4479 157.742 52.4479C157.651 52.4479 157.591 52.3421 157.591 52.2212C157.591 51.9189 157.152 51.934 157.031 52.2514C156.971 52.4177 157.077 52.6142 157.349 52.856C157.817 53.249 158.014 53.249 158.256 52.8258C158.543 52.327 158.86 51.9945 159.042 51.9945C159.147 51.9945 159.404 51.7677 159.616 51.4957C159.828 51.2387 160.009 51.1027 160.009 51.1934C160.009 51.2992 160.13 51.3899 160.281 51.3899C160.432 51.3899 160.719 51.5561 160.916 51.7677C161.112 51.9793 161.354 52.1456 161.475 52.1456C161.581 52.1456 162.276 52.3421 163.032 52.599C163.788 52.8409 164.649 53.0525 164.967 53.0525C165.269 53.0525 165.737 53.1885 165.979 53.3548C166.236 53.521 166.342 53.6571 166.236 53.6571C166.13 53.6571 165.934 53.7629 165.813 53.8838C165.677 54.0047 165.45 54.1105 165.299 54.1105C165.148 54.1105 164.815 54.3524 164.543 54.6546C164.15 55.1081 164.09 55.2744 164.181 55.6824C164.226 55.9394 164.332 56.1812 164.377 56.2266C164.438 56.2719 164.528 56.4231 164.589 56.5591C164.679 56.8312 165.208 56.9219 166.312 56.8614C166.78 56.8463 167.113 57.1788 166.811 57.3602C166.72 57.4206 166.659 57.3602 166.659 57.2544C166.659 57.1183 166.614 57.1183 166.539 57.2241C166.387 57.4509 165.178 57.602 165.042 57.4055C164.982 57.2997 164.876 57.3299 164.77 57.4962C164.604 57.7078 164.574 57.7229 164.483 57.5113C164.362 57.1637 164.12 57.2393 163.878 57.6927C163.667 58.0706 163.652 58.0857 163.637 57.7985C163.637 57.1637 162.095 57.2393 161.566 57.8892C161.445 58.0252 161.384 58.0555 161.369 57.9345C161.369 57.8438 161.445 57.7078 161.52 57.6625C161.838 57.466 161.641 57.3451 161.112 57.3904C160.795 57.4206 159.994 57.4509 159.329 57.4509C158.664 57.466 158.029 57.5416 157.923 57.6322C157.772 57.7532 157.742 57.738 157.772 57.5869C157.802 57.4811 157.727 57.3602 157.636 57.3299C157.515 57.2846 157.44 57.3753 157.44 57.5416C157.424 57.7985 157.424 57.7985 157.273 57.5416C157.077 57.209 156.563 57.209 156.079 57.5416C155.747 57.7834 155.732 57.7834 155.822 57.5416C155.898 57.3451 155.822 57.2846 155.505 57.2695C154.794 57.2393 154.205 57.3148 153.933 57.4509C153.752 57.5416 153.661 57.5416 153.661 57.4358C153.661 57.3602 153.525 57.2846 153.343 57.2846C153.177 57.2846 153.071 57.3299 153.102 57.3904C153.147 57.466 153.086 57.602 152.966 57.7078C152.784 57.859 152.754 57.859 152.754 57.6776C152.754 57.3451 152.467 57.2241 152.21 57.4509C152.013 57.602 151.953 57.602 151.862 57.4509C151.696 57.1788 151.061 57.2997 150.759 57.6625C150.608 57.8287 150.502 57.8892 150.487 57.7985C150.487 57.7229 150.577 57.5567 150.683 57.4509C150.834 57.2846 150.804 57.2695 150.547 57.4055C150.366 57.4962 150.154 57.5113 150.033 57.4358C149.882 57.3451 149.716 57.3904 149.55 57.5416C149.398 57.6776 149.278 57.7078 149.278 57.6171C149.278 57.5264 148.975 57.4811 148.492 57.4962C148.053 57.5264 147.57 57.4811 147.434 57.4055C147.252 57.3148 147.01 57.3602 146.723 57.4962C146.496 57.6171 146.24 57.6776 146.194 57.6171C146.134 57.5718 145.635 57.5113 145.076 57.4962C143.428 57.4509 143.383 57.4509 143.383 57.2544C143.383 57.1486 143.715 56.4231 144.123 55.622C144.804 54.2919 145.121 53.2943 145.076 52.7502C145.061 52.6293 145.711 52.0096 146.496 51.3899C147.298 50.7702 148.174 50.0447 148.431 49.7726C148.915 49.304 148.915 49.304 149.111 49.6063C149.217 49.7877 149.368 50.2714 149.429 50.6946C149.595 51.6317 150.215 54.0198 150.472 54.6395C150.577 54.8814 150.713 55.3953 150.789 55.758C150.94 56.5742 151.273 56.9672 151.605 56.6951C151.726 56.5893 151.908 56.544 151.998 56.6044C152.21 56.7405 152.633 56.2719 152.678 55.8638C152.709 55.6673 152.799 55.365 152.89 55.1988C153.132 54.7453 153.086 54.443 152.769 54.3372C152.588 54.2768 152.452 54.0501 152.376 53.6873C152.316 53.385 152.225 53.0525 152.164 52.9769C152.089 52.8862 151.938 52.3874 151.802 51.8433C151.56 50.8457 151.499 50.5283 151.318 49.2436C151.273 48.8506 151.137 48.3367 151.016 48.11C150.834 47.7321 150.653 46.7799 150.169 43.6058C150.094 43.107 149.988 42.5931 149.943 42.4722C149.746 41.9432 149.489 39.2981 149.55 38.4063C149.595 37.696 149.565 37.4239 149.414 37.3181C149.293 37.2425 149.278 37.1821 149.368 37.1821C149.55 37.1821 149.565 34.93 149.368 34.6277C149.262 34.4614 149.217 34.4614 149.111 34.6277C149.021 34.7788 148.975 34.7184 148.975 34.4463C148.975 34.2347 149.111 33.9324 149.278 33.7813C149.55 33.5394 149.58 33.3278 149.58 31.907C149.565 31.0304 149.595 29.6247 149.64 28.7934C149.852 24.6217 149.897 23.9718 150.003 23.8207C150.245 23.4277 150.32 21.8558 150.124 21.1151C149.912 20.2687 148.597 20.4954 148.34 21.4174C148.265 21.6441 148.174 22.4906 148.129 23.2765C148.068 24.0625 147.963 24.8485 147.872 24.9996C147.796 25.1659 147.706 26.4355 147.675 27.8412C147.645 29.2468 147.509 31.0908 147.388 31.9373C147.252 32.7837 147.162 34.2952 147.162 35.2927C147.177 37.1821 146.935 39.3888 146.663 39.7213C146.572 39.8271 146.512 40.2655 146.527 40.7038C146.527 41.127 146.481 41.5502 146.421 41.6409C146.36 41.7165 146.3 42.0641 146.3 42.4117C146.3 42.7443 146.179 43.2279 146.043 43.5C145.907 43.757 145.801 44.0744 145.801 44.1953C145.801 44.3313 145.605 44.5278 145.348 44.6638C145.106 44.7999 144.894 44.8603 144.894 44.7999C144.894 44.7545 144.728 44.815 144.516 44.951C144.32 45.087 143.821 45.1928 143.428 45.1928C143.035 45.208 142.536 45.2987 142.34 45.4045C142.143 45.5103 141.871 45.5707 141.735 45.5405C141.599 45.5103 141.176 45.6916 140.813 45.9335C140.435 46.1904 140.073 46.402 139.982 46.402C139.906 46.402 139.529 46.6439 139.166 46.931C138.803 47.2182 138.425 47.4601 138.319 47.4601C138.138 47.4601 137.488 48.2611 137.488 48.503C137.488 48.5785 137.337 48.8355 137.14 49.0773C136.672 49.6366 136.309 50.6795 136.249 51.6166C136.218 52.0247 136.143 52.4479 136.082 52.5537C136.022 52.6444 136.052 52.7502 136.158 52.7804C136.279 52.8258 136.279 52.9165 136.143 53.1432C135.962 53.4001 135.962 53.4001 136.037 53.1432C136.113 52.9165 136.067 52.8862 135.826 52.9467C135.584 53.0071 135.523 52.9769 135.599 52.7653C135.644 52.5839 135.523 52.4328 135.145 52.2212C134.783 52.0398 134.48 51.6922 134.223 51.1783C134.012 50.7551 133.785 50.3772 133.725 50.3318C133.573 50.226 133.18 49.3494 132.878 48.4425C132.742 48.0344 132.561 47.6112 132.485 47.5054C132.394 47.4147 132.334 47.0973 132.319 46.8252C132.319 46.3113 132.077 45.3289 131.911 45.1928C131.865 45.1475 131.608 44.7092 131.352 44.2104C131.064 43.6511 130.717 43.1977 130.414 43.0314C129.946 42.7594 129.946 42.7594 129.538 43.1524C129.205 43.4849 129.16 43.6511 129.22 44.0895C129.281 44.3767 129.432 44.7999 129.583 44.9964C130.369 46.1148 130.596 46.8101 130.641 48.2007C130.656 49.0169 130.611 49.4099 130.52 49.2587C130.414 49.0773 130.384 49.0924 130.384 49.304C130.384 49.4401 130.339 49.6668 130.278 49.8179C130.203 50.0144 130.233 50.0598 130.43 49.9842C130.762 49.8633 130.777 50.226 130.46 50.5435C130.339 50.6644 130.233 50.8306 130.233 50.9062C130.233 50.9818 130.097 51.1632 129.931 51.3143C129.765 51.4654 129.462 51.8887 129.251 52.2363C129.039 52.599 128.812 52.9013 128.752 52.9013C128.691 52.9013 128.45 53.2188 128.208 53.5966C127.966 53.9745 127.618 54.3524 127.422 54.4279C127.195 54.5035 127.059 54.6849 127.059 54.8663C127.059 55.0476 126.999 55.1383 126.908 55.093C126.832 55.0476 126.681 55.1685 126.575 55.3802C126.485 55.5918 126.349 55.7731 126.273 55.7731C126.197 55.7731 125.804 56.1057 125.381 56.5138C124.973 56.9067 124.641 57.1788 124.641 57.1183C124.641 57.0428 124.535 56.9823 124.414 56.9823C124.142 56.9823 123.688 56.1359 123.356 54.9721C123.22 54.5035 123.038 54.0803 122.963 54.0198C122.887 53.9745 122.857 53.8838 122.902 53.8082C122.948 53.7478 122.872 53.4001 122.736 53.0374C122.6 52.6746 122.479 52.2363 122.449 52.07C122.373 51.4957 122.056 50.2865 121.784 49.4401C121.633 48.9715 121.421 48.2007 121.315 47.7019C121.194 47.2182 121.028 46.7345 120.922 46.6287C120.817 46.5229 120.681 46.1148 120.635 45.7219C120.439 43.9988 119.094 44.3464 118.837 46.1904C118.791 46.5532 118.61 47.1275 118.444 47.4601C118.277 47.7775 118.141 48.1553 118.141 48.2914C118.141 48.4123 118.081 48.639 118.005 48.7901C117.93 48.9262 117.794 49.2436 117.688 49.5005C117.582 49.7424 117.37 50.1958 117.204 50.483C117.038 50.7702 116.872 51.1329 116.826 51.269C116.781 51.4201 116.69 51.541 116.63 51.541C116.464 51.541 116.025 52.4177 116.025 52.7351C116.025 52.8862 116.222 52.7653 116.554 52.4026C116.841 52.1003 117.083 51.7224 117.083 51.5561C117.083 51.405 117.386 50.9515 117.763 50.5586C118.141 50.1505 118.489 49.6819 118.534 49.5157C118.595 49.3343 118.746 49.0471 118.867 48.8506C119.048 48.5634 119.124 48.5332 119.29 48.6995C119.562 48.9715 120.257 51.148 120.363 52.0398C120.409 52.4479 120.499 52.6897 120.56 52.599C120.696 52.3723 121.194 52.463 121.255 52.72C121.27 52.8258 121.255 52.8409 121.21 52.7502C121.179 52.6746 121.043 52.599 120.922 52.599C120.696 52.599 120.635 52.7804 120.817 52.9467C120.907 53.0525 121.043 53.6873 121.043 54.1105C121.043 54.2617 121.179 54.3524 121.436 54.3372C121.739 54.3372 121.844 54.4128 121.844 54.6395C121.844 54.8058 121.92 54.9872 121.996 55.0476C122.086 55.1232 122.071 55.1685 121.965 55.1685C121.86 55.1685 121.769 55.2441 121.769 55.3348C121.769 55.4255 121.905 55.4557 122.116 55.3953C122.298 55.3499 122.389 55.3499 122.298 55.4255C121.89 55.758 121.754 56.0603 121.905 56.3324C122.162 56.8161 122.343 57.5416 122.237 57.6927C122.132 57.8741 120.665 58.0101 117.537 58.1461C114.725 58.2671 114.514 58.2671 113.169 58.0555C112.247 57.9043 111.975 57.9043 111.672 58.0706C111.264 58.2822 110.297 58.3275 109.647 58.1461L109.254 58.0403L109.224 55.7429C109.209 54.4733 109.148 52.9165 109.088 52.2968C109.012 51.6771 108.952 50.1202 108.936 48.8506C108.891 45.7219 108.846 45.6161 106.443 44.3162C104.054 43.0314 103.344 42.9256 99.9281 43.3035C98.7189 43.4395 97.9632 43.9686 97.4191 45.0266C97.1772 45.48 96.9354 45.8881 96.8598 45.9335C96.7238 46.0242 96.6029 46.5985 96.4668 47.6868C96.4517 47.9286 96.3459 48.1553 96.2401 48.1856C95.9832 48.2762 96.0436 48.8355 96.3459 49.0622C96.482 49.168 96.5273 49.2738 96.4366 49.2738C96.225 49.2738 96.1948 50.7853 96.4064 51.0422C96.5122 51.1783 96.5122 51.2387 96.3913 51.2387C96.1192 51.2387 96.482 52.8711 96.8447 53.2641C96.9203 53.3548 96.9807 53.5362 96.9807 53.6722C96.9807 53.8233 97.0714 53.9594 97.1772 54.0047C97.5098 54.1256 97.1319 54.3221 96.5575 54.3221C93.1265 54.2919 90.4965 53.4455 88.7886 51.798C88.6374 51.6619 88.4561 51.541 88.3654 51.541C88.2898 51.541 88.2142 51.4654 88.2142 51.3899C88.2142 51.0876 87.4736 50.483 87.1109 50.483C86.4307 50.483 85.8412 50.9062 85.5389 51.6166C85.3878 51.9945 85.2215 52.2968 85.1459 52.2968C85.0855 52.2968 84.889 52.6293 84.6925 53.0374C84.2995 53.914 83.4229 55.0174 83.1357 55.0174C82.9241 55.0174 82.8636 55.1988 82.9241 55.622C82.9392 55.7882 82.8939 55.7731 82.7276 55.5615C82.5462 55.3046 82.516 55.3046 82.4253 55.5162C82.3648 55.6673 82.2288 55.7278 82.0928 55.6824C81.9416 55.622 81.8661 55.6824 81.8661 55.8487C81.8661 55.9847 81.8056 56.0603 81.73 55.9999C81.5789 55.9092 80.0674 56.3475 78.7373 56.8614C78.2234 57.0579 77.5735 57.1637 76.8782 57.1637C76.2887 57.1637 75.7748 57.2393 75.7295 57.3148C75.669 57.3904 75.5783 57.3904 75.4725 57.3148C75.3667 57.2393 75.0342 57.0881 74.7319 56.9974C74.1727 56.8161 73.946 56.5289 74.354 56.5289C74.475 56.5289 74.6866 56.3928 74.8226 56.2417C74.9738 56.0754 75.1854 55.9847 75.3063 56.0301C75.4121 56.0754 75.8202 55.9243 76.1829 55.7127C76.5608 55.5011 76.9538 55.3197 77.0747 55.3197C77.1956 55.3197 77.4072 55.1837 77.5584 55.0174C77.7095 54.836 77.9211 54.7302 78.0269 54.7756C78.2536 54.8663 79.0245 54.5186 79.7047 54.0198C79.9616 53.8233 80.279 53.6571 80.3999 53.6571C80.6115 53.6571 81.458 53.0676 82.123 52.4479C82.3044 52.2816 82.5311 52.1456 82.6067 52.1456C82.6974 52.1456 83.1508 51.7677 83.6194 51.2992L84.4658 50.4528L84.3902 49.5912C84.3297 48.7599 83.7554 47.1578 83.3473 46.7497C82.7729 46.1451 81.9719 45.4951 81.8207 45.4951C81.7149 45.4951 81.4428 45.3893 81.1859 45.2533C80.4906 44.8754 78.9338 44.5731 77.2258 44.4825C76.1678 44.4371 75.669 44.4522 75.669 44.5731C75.669 44.6638 75.5783 44.6941 75.4574 44.6487C75.0796 44.5127 74.6563 44.8603 74.2936 45.6009C74.1122 45.9939 73.7495 46.4927 73.4925 46.7194C73.2356 46.9462 72.7821 47.5961 72.4949 48.1704C72.2078 48.7297 71.8752 49.2889 71.7846 49.3947C71.5427 49.6366 71.5578 49.6063 71.7392 50.1202C71.9962 50.7853 71.6183 51.3748 71.2555 50.8609C71.1044 50.6493 71.0288 50.7853 70.9381 51.4957C70.8928 51.8887 70.923 52.1456 71.0137 52.1456C71.1195 52.1456 71.1195 52.2061 71.0137 52.3421C70.923 52.4479 70.8474 52.6746 70.8474 52.8258C70.8323 54.5035 70.8474 54.9267 70.9835 55.1685C71.059 55.3197 71.1346 55.5464 71.1346 55.6522C71.1346 55.9092 70.3638 56.3626 70.0917 56.2568C69.9859 56.2266 69.8499 56.2719 69.7894 56.3626C69.6836 56.5289 67.1595 56.6044 66.2223 56.4684C65.9805 56.4231 65.4515 56.3626 65.0434 56.3173C64.6504 56.2719 64.1214 56.1208 63.8645 55.9847C63.018 55.5615 61.8391 54.7605 61.5066 54.3977C60.8566 53.6873 60.1614 52.0852 59.8893 50.7097C59.7381 49.954 59.5719 49.0471 59.4963 48.6692C59.1184 46.7194 58.6952 42.6838 58.6348 40.2806C58.5592 37.7413 58.6499 36.2752 59.0429 33.479C59.6928 29.005 59.9346 26.5413 59.9649 23.8358C59.9951 21.9464 59.98 21.7197 59.7079 21.4628C58.9824 20.7524 58.3929 21.2512 58.1511 22.808C57.9848 23.8358 58.0453 24.1078 58.3778 23.9718C58.6801 23.866 58.6348 24.1381 58.3022 24.6973C58.0906 25.0147 58 25.4379 58 25.9972C58 27.0099 57.9546 27.4633 57.6372 29.3224C57.5012 30.1084 57.3198 31.3629 57.2291 32.1035C57.1384 32.8441 57.0024 33.5696 56.9419 33.6906C56.8664 33.8266 56.7303 34.3254 56.6245 34.7939C56.5338 35.2776 56.3827 35.7008 56.3071 35.7462C56.2315 35.8066 56.1711 36.0787 56.1711 36.3508C56.1711 36.6379 56.0804 37.0914 55.9595 37.3634C55.8386 37.6355 55.5967 38.2703 55.4153 38.7691C55.234 39.2679 54.9921 39.8725 54.8863 40.1294C54.7805 40.3713 54.5689 40.9003 54.4178 41.2933C54.2817 41.7014 54.1155 42.0188 54.055 42.0188C53.9794 42.0188 53.783 42.3362 53.6016 42.714C53.2691 43.3791 53.1481 43.5453 52.1506 44.6336C51.8936 44.9057 51.6064 45.2684 51.5006 45.4347C51.3646 45.6312 51.289 45.6614 51.2437 45.5254C51.1228 45.2533 50.8809 45.4649 50.8809 45.8428C50.8809 46.1904 50.367 46.6287 50.1252 46.4776C50.0496 46.4323 49.9136 46.5532 49.8078 46.7345C49.5811 47.1729 49.4299 47.2787 48.6893 47.4752C48.3568 47.5659 47.9789 47.7472 47.8278 47.8681C47.6162 48.0646 47.4952 48.0646 46.8453 47.8379C45.8326 47.5054 45.2885 47.2484 45.2885 47.1426C45.2885 47.0822 45.0618 46.7648 44.7897 46.4474C44.3967 45.9637 43.6863 44.6487 42.2504 41.7014C42.19 41.5653 42.054 41.1572 41.9633 40.7945C41.8726 40.4317 41.7063 39.8876 41.6005 39.6004C41.1471 38.4517 40.3006 34.9149 40.3006 34.1742C40.3006 33.9324 40.2402 33.5696 40.1646 33.3732C39.9228 32.7535 39.6658 29.5945 39.8472 29.4131C39.9228 29.3375 39.9984 29.0504 39.9984 28.7934C39.9832 28.3702 39.9832 28.3551 39.7716 28.6271C39.5147 28.9748 39.4693 28.6876 39.6961 28.2493C39.9077 27.8563 40.0135 25.846 39.817 25.846C39.7112 25.846 39.6961 25.6647 39.7716 25.3473C39.8321 25.0903 39.8774 24.7275 39.8774 24.5613C39.8623 24.395 39.8623 23.7904 39.8623 23.2312C39.8623 22.6568 39.7867 21.8406 39.6961 21.4174C39.6054 20.9791 39.5147 20.2838 39.4845 19.8757C39.4542 19.4525 39.3635 18.9386 39.2729 18.727C39.0764 18.2433 38.4718 18.0922 38.0183 18.4096C37.7463 18.6061 37.716 18.727 37.7916 19.2863C37.8521 19.785 37.8218 19.9664 37.6405 20.0722C37.5044 20.1478 37.3835 20.4047 37.3684 20.6466C37.3382 20.8884 37.2777 21.2663 37.2173 21.4779C37.0812 21.9464 37.4742 22.1883 37.8521 21.886C38.0486 21.7197 38.0637 21.75 37.9428 22.1429C37.8218 22.5964 37.7614 27.7354 37.8521 30.2293C37.9125 31.7257 38.1392 33.4638 38.3357 34.008C38.4113 34.2196 38.502 34.6881 38.5473 35.066C38.5776 35.4439 38.638 35.852 38.6834 35.9729C38.759 36.1996 38.8799 36.8344 39.0764 38.1041C39.1368 38.497 39.288 38.9807 39.424 39.1772C39.56 39.3888 39.7263 39.7969 39.7716 40.0992C39.8321 40.4015 39.9379 40.6282 39.9984 40.5829C40.0588 40.5375 40.1495 40.8398 40.1797 41.2328C40.2251 41.6258 40.4669 42.4117 40.7239 42.971C40.9959 43.5453 41.2075 44.1046 41.2075 44.2104C41.2075 44.3162 41.2982 44.5127 41.3889 44.6185C41.5854 44.8301 41.797 45.1626 42.4772 46.4625C42.8853 47.2484 43.0062 47.3996 43.7468 48.1402C44.8351 49.2285 45.621 49.5761 46.936 49.5761C47.9638 49.561 48.5382 49.3645 49.8834 48.5483C51.1983 47.7472 51.939 47.0822 51.939 46.6892C51.939 46.266 52.2866 45.6312 52.7552 45.2382C52.9668 45.0568 53.1784 44.7243 53.2388 44.4976C53.2993 44.2557 53.3749 44.1802 53.4504 44.286C53.6167 44.558 54.4178 43.7872 54.9619 42.835C55.2189 42.3664 55.5665 41.8374 55.7176 41.6711C55.8839 41.5049 56.0502 41.1572 56.1106 40.9003C56.1711 40.6433 56.292 40.3108 56.3978 40.1597C56.5489 39.9481 56.5792 40.0539 56.5943 40.8549C56.6094 41.3839 56.6699 41.9734 56.7454 42.185C56.821 42.3815 56.8966 43.0919 56.9117 43.757C56.9419 44.422 56.9722 44.9964 57.0024 45.0417C57.0477 45.1173 57.1838 46.0242 57.4558 47.974C57.5012 48.2007 57.5616 48.503 57.607 48.6541C57.6372 48.7901 57.7128 49.2285 57.7581 49.6366C57.9395 51.4957 58.5441 53.5664 59.1487 54.3826C60.0404 55.6069 61.9751 57.2241 62.6855 57.3602C62.8669 57.3904 63.0936 57.4962 63.1994 57.5869C63.7889 58.0706 68.5954 58.2368 70.1522 57.8287C71.3462 57.5113 71.9206 57.5264 72.3136 57.8892C72.4949 58.0555 72.767 58.1915 72.9333 58.1915C73.0995 58.1915 73.2809 58.2671 73.3263 58.3426C73.3867 58.4333 73.4774 58.4636 73.553 58.4182C73.6285 58.3729 73.7192 58.4031 73.7646 58.4787C74.0064 58.8565 76.7119 58.781 78.7675 58.3124C80.0221 58.0403 80.5057 57.7532 80.7476 57.1939C80.9138 56.7858 81.0347 56.68 81.2463 56.7556C81.4277 56.8009 81.5638 56.7556 81.6242 56.6044C81.6696 56.4835 81.8358 56.3777 81.987 56.3777C82.1532 56.3777 82.3648 56.2719 82.4706 56.151C82.5764 56.0301 82.7578 55.9243 82.8787 55.9243C83.1055 55.9243 83.3171 55.7731 84.0879 55.0476C84.3751 54.7907 84.6623 54.564 84.7076 54.564C84.8739 54.564 85.6447 53.7478 85.6447 53.5664C85.6447 53.2943 86.8841 52.2816 87.1411 52.327C87.262 52.3572 87.5341 52.7049 87.7306 53.1129C87.9724 53.6117 88.2445 53.8989 88.5316 54.0047C88.7735 54.0954 88.97 54.2314 88.97 54.2919C88.97 54.443 90.3001 55.0174 90.693 55.0174C90.8593 55.0325 91.1767 55.1232 91.3883 55.2441C91.5999 55.365 92.008 55.4557 92.2952 55.4708C92.5975 55.4708 92.8998 55.5313 92.9905 55.622C93.187 55.8185 95.4844 55.9394 96.0588 55.7731C96.3459 55.6976 96.5273 55.6976 96.5273 55.7882C96.5273 56.0301 100.805 55.7731 100.956 55.5313C101.016 55.4104 101.152 55.3197 101.228 55.3197C101.319 55.3197 101.334 55.3953 101.273 55.486C101.152 55.6824 101.168 55.6824 102.12 55.229C104.372 54.1559 104.689 53.9896 104.795 53.7175C104.84 53.5966 104.931 53.5059 105.007 53.5059C105.067 53.5059 105.385 53.3397 105.687 53.1281C106.307 52.7049 106.805 52.6293 106.805 52.9618C106.805 53.0827 106.866 53.2036 106.956 53.2339C107.032 53.249 107.138 53.521 107.168 53.8082C107.198 54.0954 107.229 54.3826 107.244 54.443C107.244 54.5186 107.41 54.564 107.606 54.564C107.863 54.564 107.894 54.5942 107.712 54.7C107.591 54.7907 107.44 54.8058 107.38 54.7756C107.319 54.7302 107.259 54.8511 107.259 55.0325C107.259 55.3046 107.304 55.3348 107.44 55.1988C107.546 55.093 107.727 55.0174 107.863 55.0174C108.045 55.0174 108.06 55.0476 107.878 55.1534C107.758 55.229 107.712 55.3953 107.758 55.5162C107.818 55.6673 107.758 55.7127 107.576 55.6673C107.349 55.6069 107.289 55.7278 107.198 56.3173C107.153 56.7102 107.108 57.2695 107.108 57.5718C107.108 58.524 107.077 58.5391 105.067 58.7054C104.568 58.7507 102.966 58.8263 101.515 58.8716C100.064 58.917 98.3562 58.9926 97.7365 59.0379C97.1168 59.0833 96.0588 59.1437 95.3937 59.1891C94.7287 59.2193 93.5799 59.2797 92.8242 59.3251C92.0836 59.3704 88.8188 59.446 85.5692 59.4762C78.8582 59.5518 78.1932 59.5518 78.1025 59.4762C78.0723 59.446 77.906 59.4914 77.7397 59.582C77.5584 59.6727 76.9387 59.7634 76.3492 59.7936C75.7748 59.8239 74.611 59.8843 73.7797 59.9297C72.9484 59.9901 71.6183 60.0506 70.8323 60.0808C66.7514 60.2169 64.3935 60.3529 64.2272 60.4889C64.1214 60.5796 63.94 60.6098 63.8342 60.5645C63.7133 60.5191 62.9122 60.5494 62.0507 60.625C61.1892 60.7005 59.7986 60.7912 58.9673 60.8366C58.136 60.8819 57.1838 60.9424 56.8512 60.9877C53.8283 61.3051 52.1657 61.5318 51.6669 61.6528C51.3495 61.7434 50.7298 61.7888 50.3066 61.7586C49.8682 61.7283 49.4904 61.7434 49.445 61.8039C49.3241 62.0004 45.7722 62.1062 45.4699 61.9097C45.3641 61.8492 45.2885 61.8644 45.2885 61.955C45.2885 62.0608 44.8804 62.076 44.1096 62.0155C43.1271 61.9399 42.855 61.9702 42.5225 62.1969C41.9482 62.5747 42.0086 62.9526 42.719 63.4061C43.0818 63.6328 43.3236 63.9048 43.3236 64.0862C43.3236 64.2374 43.3992 64.4187 43.4747 64.4641C43.6259 64.5548 43.6863 64.3583 43.641 63.9653C43.5957 63.6932 44.2002 63.7537 44.3665 64.0409C44.4572 64.192 44.5328 64.2374 44.5328 64.1467C44.5328 64.0409 44.9711 64.0106 45.8629 64.0409C46.5884 64.0711 47.7975 64.1316 48.5382 64.1618C49.2939 64.192 50.0194 64.2525 50.1705 64.3129C50.3368 64.3885 50.4275 64.3432 50.4275 64.2222C50.4275 64.056 50.9414 64.0106 52.9668 63.9804C57.8942 63.9351 64.862 63.5421 64.862 63.3305C64.862 63.3003 66.4491 63.2096 67.2501 63.1945C67.5373 63.1793 67.6431 63.1189 67.5676 62.998C67.492 62.877 67.5373 62.8619 67.7489 62.9677C68.1268 63.1491 71.3009 63.0886 71.4218 62.9073C71.4671 62.8166 72.8577 62.7108 74.6715 62.6654C76.3945 62.6201 77.8758 62.5445 77.9513 62.4992C78.0118 62.4538 79.3117 62.3783 80.8383 62.348C84.0728 62.2573 84.0728 62.2573 84.3297 62.2876C84.4204 62.3027 85.4331 62.2725 86.5516 62.212C87.6701 62.1515 89.2571 62.076 90.0884 62.0306C90.9046 62.0004 91.6301 61.9248 91.7057 61.8795C91.7813 61.8492 93.6555 61.7737 95.8774 61.7434C101.092 61.6528 102.241 61.5772 102.513 61.3656C102.634 61.2598 102.724 61.2447 102.724 61.3353C102.724 61.426 103.495 61.4714 104.81 61.4563C106.397 61.426 106.926 61.4714 107.092 61.6376C107.244 61.7888 107.319 62.3178 107.334 63.4816C107.38 65.371 107.501 66.0965 107.758 65.9604C107.863 65.9151 107.803 65.9907 107.652 66.1116C107.425 66.293 107.41 66.3534 107.576 66.3534C107.909 66.3534 108.12 66.5499 108.241 66.9429C108.332 67.2301 108.302 67.2905 108.12 67.215C107.954 67.1545 107.909 67.1998 107.954 67.3208C107.999 67.4266 107.924 67.6079 107.788 67.7137C107.637 67.8347 107.561 68.1521 107.561 68.6357V69.3764L108.135 69.3915L108.695 69.4217L108.09 69.5124C107.697 69.5729 107.561 69.6484 107.682 69.724C107.773 69.7996 107.924 69.8147 107.999 69.7693C108.075 69.7089 108.105 69.8147 108.06 69.9809C108.014 70.1623 108.06 70.2832 108.15 70.2832C108.256 70.2832 108.302 70.3437 108.241 70.4344C108.196 70.51 108.06 70.5402 107.939 70.4797C107.818 70.4344 107.712 70.4797 107.712 70.5704C107.712 70.6611 107.758 70.7367 107.833 70.7367C108.014 70.7367 107.999 71.5529 107.818 71.6738C107.682 71.7645 107.697 71.8249 107.848 71.9307C108.014 72.0365 108.014 72.0819 107.848 72.1575C107.682 72.233 107.682 72.2633 107.833 72.3388C107.984 72.4144 107.984 72.4749 107.848 72.6411C107.712 72.8074 107.712 72.8527 107.848 72.8527C107.954 72.8527 107.984 72.9283 107.939 73.0039C107.561 73.6085 107.803 74.5154 108.332 74.5154C108.498 74.5154 108.589 74.5758 108.543 74.6665C108.498 74.7572 108.332 74.8177 108.166 74.8177C107.969 74.8177 107.909 74.8932 107.969 75.1048C108.014 75.256 107.969 75.528 107.878 75.6943C107.758 75.921 107.758 76.0268 107.909 76.0722C108.03 76.1326 108.03 76.1931 107.939 76.2838C107.682 76.4954 107.682 77.3418 107.924 77.8255C108.105 78.1731 108.12 78.294 107.969 78.3545C107.833 78.4301 107.833 78.4603 107.984 78.5359C108.211 78.6417 108.226 79.0044 107.984 79.08C107.878 79.1253 108.014 79.2765 108.271 79.4276C108.559 79.5939 108.71 79.7904 108.664 79.9264C108.619 80.0473 108.664 80.1985 108.785 80.2741C108.967 80.3799 108.967 80.4101 108.785 80.4101C108.664 80.4101 108.483 80.2892 108.377 80.138C108.196 79.9264 108.15 79.9113 108.03 80.1078C107.954 80.2287 107.909 80.3799 107.954 80.4403C107.999 80.5008 107.909 80.7275 107.773 80.9391C107.47 81.3925 107.546 81.4983 108.166 81.5286C108.664 81.5437 108.755 81.6797 108.362 81.8309C108.226 81.8913 108.06 81.846 107.999 81.7402C107.773 81.3925 107.652 81.6344 107.425 82.9342C107.349 83.3726 107.168 84.1434 107.032 84.6573L106.805 85.5944L107.289 86.0025L107.773 86.4106L107.365 86.4862C107.138 86.5315 106.956 86.5013 106.956 86.4409C106.956 86.3653 107.032 86.3048 107.108 86.3048C107.198 86.3048 107.259 86.2292 107.259 86.1537C107.259 86.063 107.153 86.0025 107.032 86.0025C106.775 86.0025 106.291 86.8943 106.155 87.6047C106.11 87.8616 105.898 88.436 105.702 88.8894C105.49 89.3429 105.203 90.0079 105.037 90.3858C104.463 91.7159 103.314 92.6681 102.709 92.3356C102.558 92.26 102.422 92.1391 102.422 92.0786C102.422 92.0182 102.18 91.731 101.893 91.4287C101.606 91.1264 101.349 90.7183 101.304 90.5218C101.258 90.3253 101.122 89.7812 101.001 89.3278C100.457 87.2722 100.321 86.4257 100.487 86.0176C100.729 85.4282 100.744 84.1585 100.502 83.7807C100.397 83.5993 100.336 83.3575 100.382 83.2517C100.533 82.8284 100.563 80.5612 100.412 80.5612C100.321 80.5612 100.321 80.5008 100.412 80.3647C100.638 80.0776 101.062 78.7324 100.971 78.5812C100.926 78.5056 100.941 78.3545 101.016 78.2487C101.077 78.158 101.152 77.9313 101.168 77.7801C101.198 77.629 101.319 77.4174 101.455 77.3267C101.636 77.1755 101.651 77.1151 101.47 76.8732C101.273 76.6163 101.243 76.6314 100.956 77.2058C100.759 77.629 100.714 77.8557 100.82 77.901C100.941 77.9464 100.941 78.0069 100.82 78.0975C100.578 78.2789 100.276 78.8835 100.23 79.2916C100.2 79.609 100.064 80.1078 99.1724 82.9796C98.6887 84.5969 98.6282 84.9143 98.7945 85.0201C98.8701 85.0654 98.8852 85.2619 98.8247 85.4433C98.6887 85.8363 98.7038 86.6676 98.8701 88.3755C98.9759 89.5091 99.0212 89.6301 99.3084 89.6452C99.6258 89.6603 99.6258 89.6603 99.3235 89.751C98.8852 89.9021 98.9457 90.2951 99.3991 90.3556C99.8979 90.4311 100.17 90.6881 99.7316 90.6881C99.3235 90.6881 99.3235 90.7334 99.7014 91.5043C100.004 92.124 100.805 92.8041 101.228 92.8041C101.364 92.8041 101.576 93.046 101.712 93.3332C102.014 93.968 102.603 94.3005 102.936 94.0284C103.102 93.8773 103.238 93.8773 103.48 94.0133C103.979 94.2854 104.976 93.8471 105.672 93.0611C106.307 92.3507 107.44 90.2044 107.712 89.1766C107.803 88.7987 107.954 88.3755 108.03 88.2244C108.77 86.8187 109.722 82.4506 109.722 80.5159C109.722 80.2136 109.768 79.9113 109.828 79.8811C109.904 79.8357 109.934 78.8684 109.889 77.7197C109.858 76.5861 109.798 74.2131 109.753 72.4749C109.722 70.7216 109.617 68.6509 109.541 67.8649C109.405 66.4743 109.42 65.8546 109.602 64.056C109.662 63.5421 109.632 63.1642 109.526 63.1038C109.284 62.9526 109.345 62.3934 109.662 61.8795C109.934 61.426 110.01 61.3958 110.992 61.3656C111.551 61.3353 112.458 61.3353 113.002 61.3353C113.546 61.3505 114.091 61.3202 114.211 61.2749C114.393 61.1993 117.083 61.1691 117.491 61.2295C117.93 61.3051 118.292 61.1842 118.292 60.9726C118.292 60.7761 118.338 60.761 118.519 60.9121C118.67 61.0331 119.094 61.0784 119.804 61.0331C120.393 60.9877 120.907 61.0179 120.953 61.0935C121.013 61.1691 121.225 61.1993 121.451 61.1389C121.663 61.0784 122.63 61.0179 123.583 60.9877C124.535 60.9575 125.321 60.9272 125.321 60.9121C125.321 60.8214 126.152 60.8214 126.56 60.9121C126.817 60.9726 127.089 60.9877 127.135 60.9272C127.195 60.8819 128.193 60.8214 129.356 60.8063C131.034 60.7912 131.518 60.7308 131.729 60.5494C131.881 60.4133 132.062 60.3075 132.138 60.3075C132.213 60.3075 132.168 60.368 132.047 60.4587C131.699 60.6854 131.926 60.7308 132.697 60.6098C133.09 60.5494 133.452 60.5645 133.498 60.6401C133.543 60.7005 133.634 60.7308 133.709 60.6854C133.785 60.6401 135.206 60.5796 136.868 60.5343C138.531 60.4889 140.058 60.3982 140.269 60.3075C140.481 60.232 140.677 60.2169 140.723 60.2773C140.783 60.3831 141.917 60.368 144.063 60.2471C147.842 60.0204 151.575 59.8843 158.271 59.7785C161.022 59.7181 163.637 59.6727 164.09 59.6727C164.543 59.6576 166.191 59.703 167.733 59.7634C169.35 59.8239 170.589 59.8239 170.635 59.7332C170.695 59.6727 170.982 59.6274 171.3 59.6576C172.977 59.839 173.763 59.6425 173.763 59.0379C173.763 58.8263 173.824 58.6298 173.899 58.5845C174.126 58.4484 174.232 58.9623 174.035 59.2042C173.884 59.3855 173.899 59.4611 174.111 59.582C174.308 59.6878 174.338 59.7785 174.217 60.0053C174.141 60.1564 174.066 60.3831 174.066 60.4889C174.081 60.5947 174.217 60.4285 174.383 60.1262C174.776 59.3553 175.184 59.1437 175.471 59.5669C175.592 59.7332 175.668 59.9901 175.622 60.1564C175.517 60.5343 175.804 60.6552 176.046 60.3529C176.212 60.1564 176.212 60.0959 176.076 60.0506C175.97 60.0053 175.879 59.8843 175.879 59.7634C175.879 59.6425 175.97 59.5518 176.076 59.5367C176.167 59.5367 176.469 59.5065 176.711 59.4914C176.968 59.4611 177.285 59.5065 177.436 59.582C177.603 59.6727 177.693 59.6576 177.693 59.5518C177.693 59.4611 177.844 59.4007 178.041 59.4158C178.222 59.446 178.464 59.4158 178.57 59.3402C178.872 59.1588 178.993 59.3704 178.766 59.7332C178.615 59.975 178.615 60.0657 178.766 60.1564C179.023 60.3227 179.356 60.1715 179.507 59.7936C179.613 59.5518 179.643 59.5367 179.643 59.7332C179.658 59.8692 179.779 59.975 179.93 59.975C180.066 59.9599 180.399 60.0053 180.671 60.0657C181.109 60.1715 181.185 60.1262 181.472 59.6727C181.774 59.1739 181.774 59.1739 181.774 59.5669C181.774 59.7936 181.88 60.0204 182.016 60.0657C182.349 60.1866 182.349 60.1866 182.424 59.8843C182.485 59.6878 182.5 59.703 182.515 59.9599C182.53 60.1564 182.696 60.368 182.938 60.4889C183.271 60.6552 183.376 60.8517 183.527 61.5621C183.709 62.4689 183.936 62.8317 184.344 62.877C184.918 62.9526 185.235 62.8619 185.326 62.5747C185.371 62.4085 185.507 62.2725 185.628 62.2725C185.916 62.2725 186.006 61.8946 185.84 61.3353C185.628 60.5947 185.674 60.2471 185.991 59.8994C186.157 59.7181 186.248 59.5367 186.203 59.4914C186.142 59.446 186.173 59.4007 186.248 59.4007C186.324 59.4007 186.535 59.5669 186.732 59.7634C186.928 59.975 187.185 60.0959 187.351 60.0506C187.503 60.0204 187.986 60.0506 188.44 60.1413C189.09 60.2622 189.332 60.2471 189.604 60.0657C189.8 59.9297 189.936 59.9146 189.936 60.0053C189.936 60.0959 190.012 60.1262 190.087 60.0808C190.178 60.0355 190.238 60.0959 190.238 60.2169C190.238 60.5191 190.526 60.5343 190.631 60.2471C190.677 60.1262 190.903 60.0053 191.13 59.9599C192.037 59.7785 192.37 58.8868 191.705 58.4484C191.508 58.3124 190.843 58.1764 190.223 58.131C189.604 58.1008 188.787 57.9648 188.394 57.8438C188.001 57.7229 187.654 57.6474 187.608 57.6927C187.457 57.859 186.475 57.4055 186.384 57.1335C186.339 56.9823 185.9 56.4684 185.417 55.9999C184.525 55.1383 184.51 55.1081 184.449 53.6571C184.434 53.2641 184.344 53.0525 184.208 53.0525C184.041 53.0525 184.041 53.0071 184.193 52.8258C184.313 52.6746 184.344 52.3723 184.253 51.8131C184.193 51.3748 184.162 50.7853 184.177 50.4981C184.208 50.1656 184.162 50.0296 184.056 50.09C183.966 50.1505 183.89 50.1354 183.89 50.0447C183.89 49.9691 183.966 49.8482 184.041 49.8028C184.223 49.697 184.253 48.8204 184.087 48.8204C183.905 48.8204 183.996 38.8447 184.177 37.0309C184.268 36.1543 184.389 34.93 184.449 34.3103C184.495 33.6906 184.586 33.1011 184.661 33.0255C184.722 32.9348 184.782 32.3454 184.767 31.7105C184.767 30.6374 184.903 29.6852 185.251 28.4911C185.326 28.2342 185.432 27.69 185.492 27.2819C185.538 26.8587 185.644 26.4506 185.704 26.375C185.795 26.239 186.006 25.3624 186.218 24.1834C186.309 23.73 186.611 22.5359 186.717 22.2185C186.762 22.0976 186.822 21.493 186.853 20.8733C186.883 20.2536 186.989 19.513 187.095 19.2107C187.185 18.9084 187.291 18.4247 187.306 18.1375C187.321 17.8504 187.412 17.2458 187.503 16.7923C187.578 16.354 187.624 15.7343 187.593 15.4018C187.563 15.0844 187.593 14.7821 187.684 14.7367C187.805 14.646 187.775 13.8298 187.593 12.5602C187.503 11.9103 187.125 11.3359 186.792 11.351C186.656 11.351 186.354 11.4266 186.127 11.5173ZM186.188 16.7772C186.157 17.5632 186.082 18.2736 186.021 18.3643C185.946 18.4398 185.855 18.8933 185.795 19.3467C185.644 20.7222 185.523 21.3116 185.402 21.3116C185.16 21.3116 185.145 20.9791 185.266 17.7899C185.281 17.3062 185.251 16.8679 185.19 16.8226C185.145 16.7621 185.205 16.5656 185.326 16.3691C185.507 16.0971 185.523 15.9459 185.387 15.7041C185.266 15.4622 185.266 15.296 185.417 15.0239L185.598 14.6612L185.916 14.9937C186.203 15.296 186.233 15.4925 186.188 16.7772ZM185.296 22.3243C185.251 22.6417 185.145 23.0347 185.084 23.201C184.948 23.5033 185.039 22.5813 185.205 22.022C185.326 21.5686 185.387 21.75 185.296 22.3243ZM58.6045 22.4755C58.4534 22.7324 58.4534 22.7173 58.4383 22.4301C58.4383 22.0825 58.6348 21.8104 58.7103 22.0522C58.7406 22.1429 58.6952 22.3243 58.6045 22.4755ZM58.6045 25.2868C58.4534 25.4228 58.4383 25.4077 58.529 25.1961C58.5743 25.045 58.665 24.9694 58.7103 25.0147C58.7557 25.0601 58.7103 25.181 58.6045 25.2868ZM58.4534 26.1937C58.1964 26.4506 58.0906 26.2088 58.3022 25.8158C58.4836 25.4984 58.5139 25.4984 58.5592 25.7553C58.5894 25.9065 58.5441 26.103 58.4534 26.1937ZM57.9697 30.7583C57.8942 31.1664 57.8639 31.6652 57.9093 31.8617C57.9546 32.0582 57.8942 32.3454 57.743 32.5418C57.5163 32.8593 57.5012 32.8441 57.5919 32.0431C57.6523 31.5896 57.7128 31.0757 57.743 30.9095C57.7883 30.7432 57.8186 30.4107 57.8186 30.1537C57.8337 29.8817 57.8942 29.7759 57.9697 29.8514C58.0604 29.9421 58.0604 30.2898 57.9697 30.7583ZM57.6825 33.9929C57.6825 34.0835 57.6221 34.1894 57.5314 34.2347C57.4558 34.28 57.3803 34.2196 57.3803 34.0987C57.3803 33.9626 57.4558 33.8568 57.5314 33.8568C57.6221 33.8568 57.6825 33.9173 57.6825 33.9929ZM57.3198 34.7939C57.2744 34.9904 57.2442 35.1718 57.2442 35.202C57.2291 35.2474 57.1535 35.202 57.0628 35.1113C56.8664 34.9149 56.9873 34.4614 57.2291 34.4614C57.3047 34.4614 57.35 34.6126 57.3198 34.7939ZM182.197 41.0363C182.092 45.4196 182.212 50.9364 182.454 52.07C182.485 52.2363 182.56 53.2036 182.621 54.2314C182.726 56.2568 182.696 56.3777 181.865 56.7707C181.608 56.8916 181.17 57.1183 180.882 57.2695C180.429 57.5113 180.051 57.5416 177.859 57.4962C171.995 57.3904 171.587 57.3904 171.526 57.5718C171.481 57.6927 171.405 57.6776 171.285 57.5113C171.149 57.3148 170.771 57.2393 169.803 57.1939C169.063 57.1486 168.458 57.1788 168.413 57.2695C168.307 57.4358 167.718 57.3148 167.718 57.1335C167.718 56.9219 168.488 56.3777 168.776 56.3777C168.927 56.3777 169.123 56.2719 169.229 56.151C169.335 56.0301 169.471 55.9696 169.546 56.015C169.758 56.1359 170.695 55.5162 171.058 55.0023C171.315 54.6395 171.36 54.3977 171.3 53.9291C171.209 53.2188 170.771 52.5537 170.347 52.463C169.607 52.327 169.486 51.798 170.06 51.1178C170.287 50.8457 170.438 50.483 170.438 50.1958C170.438 49.9389 170.514 49.7273 170.589 49.7273C170.68 49.7273 170.74 49.8482 170.74 49.9842C170.756 50.2412 170.756 50.2412 170.907 49.9842C170.982 49.8482 171.133 49.7273 171.239 49.7273C171.602 49.7273 175.728 45.1022 175.728 44.6941C175.728 44.558 175.864 44.3767 176.031 44.286C176.197 44.1953 176.333 43.9988 176.333 43.8325C176.333 43.5151 176.575 43.2884 176.665 43.5302C176.696 43.6209 176.953 43.364 177.24 42.9861C177.527 42.6082 177.92 42.1548 178.101 41.9885C178.298 41.8072 178.494 41.4444 178.54 41.1572C178.615 40.7794 178.676 40.6887 178.827 40.8096C179.099 41.0363 179.356 40.341 179.25 39.6458C179.174 39.1016 179.174 39.0865 179.431 39.3283C179.688 39.5551 179.719 39.5551 180.051 39.1621C180.248 38.9202 180.444 38.4668 180.505 38.1192C180.565 37.696 180.686 37.4844 180.882 37.439C181.049 37.3937 181.275 37.1065 181.411 36.7891C181.532 36.4868 181.744 36.1391 181.865 36.0182C181.986 35.8973 182.076 35.7159 182.092 35.6252C182.092 35.5194 182.152 35.5799 182.212 35.7462C182.273 35.9124 182.273 38.2854 182.197 41.0363ZM177.89 41.5653C177.844 41.7316 177.784 41.8676 177.754 41.8676C177.723 41.8676 177.693 41.7316 177.693 41.5653C177.693 41.3991 177.754 41.263 177.829 41.263C177.905 41.263 177.935 41.3991 177.89 41.5653ZM54.7503 42.3513C54.4631 42.7594 54.4329 42.6385 54.6898 42.0792C54.7956 41.8676 54.9014 41.7618 54.9317 41.8525C54.9619 41.9432 54.8712 42.1699 54.7503 42.3513ZM147.902 43.6814C147.978 43.9686 148.068 44.4976 148.114 44.8452C148.174 45.4045 148.144 45.4649 147.932 45.3591C147.464 45.1022 147.207 44.6638 147.116 44.0139C147.071 43.5907 147.086 43.4093 147.192 43.4849C147.298 43.5302 147.313 43.5 147.252 43.3942C147.192 43.3035 147.192 43.0768 147.252 42.8954C147.343 42.578 147.358 42.578 147.554 42.8501C147.675 43.0163 147.827 43.3791 147.902 43.6814ZM163.939 43.6663C163.939 43.8779 163.818 44.2406 163.667 44.4522C162.971 45.5103 162.488 46.1904 162.322 46.3718C162.216 46.4776 162.125 46.7194 162.125 46.9008C162.125 47.1275 162.08 47.1729 161.989 47.0368C161.823 46.7648 161.596 47.0671 161.445 47.7623C161.339 48.2611 161.324 48.2762 161.203 47.9286C161.097 47.6717 160.991 47.6112 160.795 47.6868C160.175 47.9437 160.085 47.9286 159.888 47.4298C159.767 47.1578 159.616 46.7799 159.525 46.5985C159.117 45.7672 160.372 43.8325 161.309 43.8325C161.929 43.8325 162.548 43.5756 163.017 43.1221C163.364 42.7896 163.395 42.7896 163.667 43.0163C163.818 43.1675 163.939 43.4547 163.939 43.6663ZM183.739 43.2884C183.739 43.3337 183.633 43.3791 183.512 43.3791C183.376 43.3791 183.286 43.2431 183.286 43.0617C183.286 42.7896 183.316 42.7745 183.512 42.9861C183.633 43.107 183.739 43.2431 183.739 43.2884ZM53.919 43.7872C53.7981 44.0139 53.7678 44.0139 53.7527 43.8174C53.7527 43.5605 53.9039 43.3337 54.0248 43.4395C54.055 43.4849 54.0097 43.636 53.919 43.7872ZM102.906 44.8603C103.299 45.0417 103.782 45.1928 103.964 45.208C104.478 45.208 105.626 45.7219 105.49 45.873C105.43 45.9335 105.475 45.9637 105.611 45.9184C105.793 45.8428 105.838 45.9184 105.793 46.2206C105.747 46.6136 105.747 46.6287 105.914 46.2811C106.019 46.0997 106.201 45.9486 106.337 45.9637C106.488 45.9637 106.518 45.9939 106.397 46.0544C106.08 46.1753 106.17 46.5229 106.518 46.5834C106.699 46.6136 106.926 46.7497 107.017 46.9008C107.153 47.1275 107.123 47.2333 106.851 47.4601C106.609 47.6565 106.503 47.8984 106.503 48.2914C106.503 48.5937 106.548 48.8053 106.624 48.7599C106.684 48.7297 106.805 48.8657 106.911 49.0622C107.002 49.2587 107.032 49.425 106.972 49.425C106.911 49.425 106.775 49.6517 106.669 49.9389C106.443 50.483 105.596 51.269 104.085 52.2968C103.541 52.6746 103.072 53.0223 103.057 53.0978C103.027 53.1583 102.936 53.1734 102.86 53.1129C102.724 53.0374 101.137 53.5664 100.835 53.7931C100.502 54.0501 99.7467 54.0954 99.4142 53.8687C98.3562 53.1129 97.8574 49.3947 98.4922 46.931C98.9759 45.0719 99.3084 44.7848 101.062 44.6034C102.21 44.4825 102.014 44.4522 102.906 44.8603ZM175.335 44.9812C175.381 45.1022 175.366 45.1626 175.275 45.1173C175.184 45.0719 175.124 44.9661 175.124 44.8754C175.124 44.6638 175.23 44.7092 175.335 44.9812ZM174.821 45.2533C174.821 45.3742 174.761 45.5254 174.67 45.5707C174.595 45.6161 174.519 45.5254 174.519 45.3591C174.519 45.1777 174.595 45.0417 174.67 45.0417C174.761 45.0417 174.821 45.1324 174.821 45.2533ZM183.543 45.6765C183.497 45.7974 183.452 45.7521 183.452 45.5858C183.437 45.4196 183.482 45.3289 183.527 45.3893C183.573 45.4347 183.588 45.5707 183.543 45.6765ZM159.208 46.13C159.163 46.2358 159.132 46.1602 159.132 45.9486C159.132 45.737 159.163 45.6614 159.208 45.7521C159.238 45.8579 159.238 46.0393 159.208 46.13ZM145.076 47.0822C145.136 47.1578 145.197 47.4147 145.197 47.6263C145.197 47.8379 145.242 48.0646 145.302 48.1251C145.363 48.1704 145.408 48.3518 145.423 48.503C145.438 48.6995 145.363 48.7599 145.166 48.6995C144.894 48.639 144.773 48.9111 145.045 49.0018C145.136 49.032 145.076 49.2889 144.894 49.6063C144.728 49.9237 144.592 50.3167 144.592 50.483C144.592 50.6644 144.471 50.9818 144.335 51.1934C144.184 51.4201 144.154 51.5561 144.259 51.4957C144.35 51.4201 144.441 51.4352 144.441 51.5259C144.441 51.6166 144.305 51.7526 144.139 51.8433C143.972 51.934 143.836 51.9642 143.836 51.9189C143.836 51.6771 142.688 52.5084 142.536 52.856L142.34 53.2792L142.416 52.7502C142.476 52.327 142.461 52.2665 142.325 52.4932C142.038 52.9316 141.312 53.2188 140.753 53.1129C140.36 53.0525 140.163 53.0978 139.952 53.3094C139.544 53.7024 139.015 54.0954 139.272 53.8082C139.574 53.4606 139.483 53.3548 138.864 53.3548C138.365 53.3548 138.259 53.2943 138.214 53.0071C138.138 52.4177 138.395 50.3621 138.637 49.8028C138.879 49.2285 139.967 48.0646 140.284 48.0646C140.39 48.0646 140.647 47.9286 140.844 47.7623C141.055 47.6112 141.267 47.5054 141.297 47.5507C141.342 47.5961 141.63 47.4903 141.932 47.324C142.234 47.1426 142.476 47.0368 142.476 47.0671C142.476 47.0973 142.703 47.0671 142.975 47.0066C143.655 46.8555 144.955 46.9008 145.076 47.0822ZM79.3419 47.7775C80.4755 48.1251 81.4882 48.5332 81.7905 48.7599C82.0777 48.9715 82.3648 49.1076 82.4404 49.0622C82.6822 48.9111 83.045 49.6366 82.9694 50.0749C82.9241 50.3016 82.8334 50.483 82.7578 50.483C82.6822 50.483 82.4858 50.619 82.3346 50.7702C82.1683 50.9364 81.8358 51.1783 81.594 51.2992C81.3522 51.4201 80.8534 51.798 80.4906 52.1305C79.4175 53.1129 79.3268 53.1885 79.2361 53.0978C79.1908 53.0525 78.7978 53.1885 78.3746 53.4152C77.9362 53.6269 77.4828 53.8082 77.377 53.8082C77.2712 53.8082 77.1805 53.8687 77.1805 53.9443C77.1805 54.0198 76.9387 54.171 76.6515 54.2768C76.3643 54.3826 76.1225 54.5186 76.1225 54.564C76.1225 54.6093 75.9109 54.6698 75.6388 54.6849C75.3667 54.7151 75.004 54.8511 74.8377 55.0023C74.4447 55.365 73.553 55.6673 73.553 55.4406C73.553 55.365 73.4623 55.3197 73.3414 55.365C72.6914 55.622 72.5856 52.6595 73.2204 51.3748C73.4018 50.9969 73.553 50.6341 73.553 50.5586C73.553 50.483 73.6739 50.3016 73.8099 50.1505C74.0215 49.9237 74.0366 49.8028 73.9006 49.5912C73.7495 49.3645 73.825 49.1831 74.3389 48.503C74.6715 48.0495 75.0947 47.6414 75.2609 47.5961C75.4423 47.5507 75.8202 47.4601 76.0922 47.3996C76.3492 47.324 76.5759 47.2031 76.5759 47.1426C76.5759 46.9764 76.848 47.0368 79.3419 47.7775ZM147.494 47.5659C147.539 48.2158 147.418 48.6088 146.95 49.1831C146.3 49.9993 145.907 50.6493 145.998 50.7399C146.149 50.876 145.469 51.4201 145.257 51.3294C144.909 51.1934 145.166 50.0296 145.605 49.6819C145.892 49.4401 145.937 49.304 145.862 48.896C145.801 48.5483 145.831 48.3518 145.983 48.2762C146.088 48.2007 146.27 47.9588 146.36 47.717C146.512 47.3996 146.648 47.3089 147.01 47.3089C147.328 47.3089 147.464 47.3845 147.494 47.5659ZM161.944 48.5332C161.823 48.6088 161.702 48.5634 161.626 48.4274C161.49 48.1704 161.626 47.8681 161.838 47.9891C161.913 48.0495 161.989 47.9588 161.989 47.8077C162.004 47.6565 162.049 47.7321 162.08 47.974C162.125 48.2309 162.065 48.4576 161.944 48.5332ZM81.6696 48.0949C81.6242 48.2158 81.5789 48.1704 81.5789 48.0042C81.5638 47.8379 81.6091 47.7472 81.6544 47.8077C81.6998 47.853 81.7149 47.9891 81.6696 48.0949ZM131.185 49.1378C131.125 49.3343 131.049 49.3947 130.959 49.304C130.792 49.1378 130.913 48.8204 131.14 48.8204C131.2 48.8204 131.231 48.9564 131.185 49.1378ZM161.052 49.4552C161.067 49.1982 161.369 49.3796 161.369 49.6517C161.369 49.7877 161.279 49.8331 161.112 49.7726C160.75 49.6366 160.629 49.425 160.735 49.1378C160.81 48.9564 160.855 48.9866 160.931 49.2738C160.991 49.4854 161.037 49.561 161.052 49.4552ZM83.1508 49.2738C83.1961 49.3494 83.1659 49.425 83.0903 49.425C82.9997 49.425 82.9241 49.3494 82.9241 49.2738C82.9241 49.1831 82.9543 49.1227 82.9845 49.1227C83.0299 49.1227 83.1055 49.1831 83.1508 49.2738ZM132.258 51.7526C132.606 52.5386 133.543 53.5059 133.936 53.5059C134.057 53.5059 134.163 53.5664 134.163 53.6269C134.163 53.8838 134.813 54.4279 135.009 54.3524C135.145 54.307 135.221 54.3675 135.221 54.5337C135.236 54.7756 135.236 54.7756 135.433 54.5337C135.614 54.2919 135.644 54.2919 135.826 54.6244C135.916 54.8209 136.173 55.0627 136.37 55.1534C136.611 55.2592 136.732 55.4406 136.732 55.6824C136.732 55.8789 136.823 56.1208 136.944 56.2115C137.216 56.4533 137.488 57.1939 137.352 57.3904C137.186 57.6625 136.611 57.8892 136.143 57.8892C135.886 57.8892 135.674 57.9497 135.674 58.0403C135.674 58.1159 135.523 58.1915 135.342 58.1764C135.145 58.1764 135.085 58.131 135.191 58.0857C135.72 57.8741 135.13 57.7985 132.818 57.8136C131.004 57.8287 130.203 57.8741 130.037 58.0101C129.855 58.1613 129.795 58.1613 129.749 58.0101C129.704 57.8892 129.341 57.8136 128.706 57.7834C128.177 57.7683 127.603 57.7532 127.437 57.738C126.817 57.7229 126.696 57.5113 126.968 56.9672C127.165 56.5742 127.18 56.4533 127.029 56.3475C126.893 56.2719 126.923 56.2266 127.15 56.2266C127.316 56.2266 127.588 56.0754 127.754 55.8789C127.921 55.6976 128.268 55.3802 128.525 55.1685C128.767 54.9569 129.069 54.6244 129.175 54.4128C129.281 54.2012 129.523 53.8687 129.704 53.6571C129.885 53.4455 130.112 53.0525 130.203 52.7804C130.294 52.5084 130.581 52.0096 130.853 51.6771C131.11 51.3596 131.276 51.0876 131.216 51.0876C131.17 51.0876 131.155 51.0271 131.2 50.9515C131.412 50.619 131.941 51.012 132.258 51.7526ZM107.516 52.2212C107.516 52.3421 107.455 52.4479 107.38 52.4479C107.229 52.4479 107.213 52.2363 107.365 52.1003C107.501 51.9491 107.516 51.9642 107.516 52.2212ZM183.89 52.7049C183.89 52.856 183.815 53.0827 183.739 53.2036C183.633 53.3699 183.588 53.3094 183.588 52.9316C183.588 52.6746 183.664 52.4479 183.739 52.4479C183.83 52.4479 183.89 52.5688 183.89 52.7049ZM143.141 54.9872C143.081 55.1232 143.005 55.4406 142.975 55.6824C142.929 56.0603 142.975 56.1057 143.277 56.0301C143.594 55.9394 143.594 55.9545 143.322 56.151C143.171 56.2719 142.975 56.3324 142.899 56.287C142.733 56.1812 142.174 56.6649 142.174 56.9067C142.174 57.2544 141.72 57.466 140.995 57.466C139.952 57.466 139.377 57.1335 139.075 56.3173C138.682 55.2744 138.758 55.1534 140.133 54.7756C141.433 54.4279 142.416 54.0047 142.778 53.6722C142.975 53.4757 143.02 53.5362 143.126 54.0954C143.201 54.4582 143.201 54.8511 143.141 54.9872ZM169.093 53.7478C169.652 54.0349 169.501 54.307 168.655 54.5791C168.352 54.6698 167.959 54.8663 167.793 55.0174C167.43 55.3348 166.206 55.5011 166.206 55.229C166.206 55.1232 166.266 55.0174 166.327 54.9872C166.387 54.9569 166.584 54.7 166.75 54.4128C166.977 54.0198 167.204 53.8536 167.718 53.7175C168.624 53.4757 168.579 53.4757 169.093 53.7478ZM108.06 54.0652C107.954 54.0954 107.773 54.0954 107.682 54.0652C107.576 54.0198 107.652 53.9896 107.863 53.9896C108.075 53.9896 108.15 54.0198 108.06 54.0652ZM184.193 54.4884C184.193 54.6093 184.132 54.7151 184.041 54.7151C183.966 54.7151 183.89 54.6093 183.89 54.4884C183.89 54.3675 183.966 54.2617 184.041 54.2617C184.132 54.2617 184.193 54.3675 184.193 54.4884ZM107.485 56.8463C107.395 57.4811 107.259 57.602 107.259 57.0277C107.259 56.6498 107.349 56.3777 107.501 56.3777C107.516 56.3777 107.516 56.5893 107.485 56.8463ZM125.699 56.7405C125.699 56.7707 125.593 56.8765 125.472 56.9823C125.291 57.1335 125.245 57.1335 125.245 56.9219C125.245 56.7858 125.351 56.68 125.472 56.68C125.593 56.68 125.699 56.7102 125.699 56.7405ZM80.6569 57.0881C80.6569 57.1637 80.4755 57.2241 80.2488 57.2393C79.9616 57.2544 79.9163 57.2241 80.0674 57.1183C80.3244 56.9521 80.6569 56.937 80.6569 57.0881ZM185.568 57.4811C185.417 57.6171 185.402 57.602 185.492 57.3904C185.538 57.2393 185.628 57.1637 185.674 57.209C185.719 57.2544 185.674 57.3753 185.568 57.4811ZM152.482 57.9194C152.376 58.0252 152.301 58.0403 152.301 57.9497C152.301 57.738 152.482 57.5567 152.588 57.6625C152.618 57.7078 152.573 57.8287 152.482 57.9194ZM142.174 58.1159C142.068 58.2519 141.947 58.3124 141.886 58.2671C141.841 58.2217 141.902 58.1159 142.023 58.0403C142.34 57.8287 142.385 57.859 142.174 58.1159ZM142.778 58.0403C142.778 58.1159 142.703 58.1915 142.612 58.1915C142.536 58.1915 142.506 58.1159 142.552 58.0403C142.597 57.9497 142.672 57.8892 142.718 57.8892C142.748 57.8892 142.778 57.9497 142.778 58.0403ZM179.205 58.1915C179.205 58.2671 179.129 58.3426 179.038 58.3426C178.963 58.3426 178.933 58.2671 178.978 58.1915C179.023 58.1008 179.099 58.0403 179.144 58.0403C179.174 58.0403 179.205 58.1008 179.205 58.1915ZM184.797 58.2671C184.797 58.388 184.737 58.4938 184.646 58.4938C184.57 58.4938 184.54 58.388 184.586 58.2671C184.646 58.1461 184.706 58.0403 184.737 58.0403C184.767 58.0403 184.797 58.1461 184.797 58.2671ZM120.106 58.4938C120.106 58.5694 120.031 58.6449 119.94 58.6449C119.864 58.6449 119.834 58.5694 119.88 58.4938C119.925 58.4031 120 58.3426 120.046 58.3426C120.076 58.3426 120.106 58.4031 120.106 58.4938ZM123.991 58.4333C123.945 58.4787 123.809 58.4938 123.704 58.4484C123.583 58.4031 123.628 58.3577 123.794 58.3577C123.96 58.3426 124.051 58.388 123.991 58.4333ZM160.462 58.5542C160.462 58.6752 160.387 58.8263 160.281 58.8868C160.16 58.9623 160.145 58.917 160.205 58.7507C160.251 58.5996 160.236 58.4938 160.16 58.4938C160.069 58.4938 160.009 58.5996 160.009 58.7205C160.009 58.8414 159.949 58.9472 159.858 58.9472C159.646 58.9472 159.661 58.7507 159.888 58.524C160.13 58.2822 160.462 58.2973 160.462 58.5542ZM125.548 58.6449C125.548 58.7205 125.517 58.7961 125.487 58.7961C125.442 58.7961 125.366 58.7205 125.321 58.6449C125.275 58.5542 125.306 58.4938 125.381 58.4938C125.472 58.4938 125.548 58.5542 125.548 58.6449ZM154.507 58.7961C154.507 58.9623 154.447 59.0984 154.386 59.0984C154.326 59.0984 154.265 58.9623 154.265 58.7961C154.265 58.6298 154.326 58.4938 154.386 58.4938C154.447 58.4938 154.507 58.6298 154.507 58.7961ZM155.369 58.7205C155.323 58.8565 155.248 58.9321 155.218 58.8868C155.172 58.8414 155.187 58.7507 155.248 58.66C155.384 58.4182 155.475 58.4636 155.369 58.7205ZM150.517 58.9775C150.411 59.0833 150.336 59.0984 150.336 59.0077C150.336 58.7961 150.517 58.6147 150.623 58.7205C150.653 58.7658 150.608 58.8868 150.517 58.9775ZM153.464 58.9775C153.419 59.0984 153.374 59.053 153.374 58.8868C153.359 58.7205 153.404 58.6298 153.449 58.6903C153.495 58.7356 153.51 58.8716 153.464 58.9775ZM184.722 59.3855C184.434 59.6727 184.344 59.582 184.449 59.0379C184.54 58.6298 184.555 58.6147 184.752 58.8716C184.918 59.1135 184.918 59.1891 184.722 59.3855ZM164.8 59.1286C164.755 59.2495 164.71 59.2042 164.71 59.0379C164.695 58.8716 164.74 58.781 164.785 58.8414C164.831 58.8868 164.846 59.0228 164.8 59.1286ZM140.632 59.4309C140.602 59.6576 140.466 59.7936 140.254 59.8239C139.831 59.8843 139.786 59.4914 140.179 59.2646C140.572 59.0228 140.692 59.0681 140.632 59.4309ZM134.208 59.703C134.118 60.0355 134.102 60.0355 134.012 59.7634C133.951 59.6123 133.982 59.4309 134.072 59.3704C134.299 59.2193 134.314 59.2797 134.208 59.703ZM180.867 59.4762C180.867 59.5972 180.807 59.703 180.716 59.703C180.641 59.703 180.565 59.5972 180.565 59.4762C180.565 59.3553 180.641 59.2495 180.716 59.2495C180.807 59.2495 180.867 59.3553 180.867 59.4762ZM128.586 59.5972C128.48 59.703 128.374 59.7181 128.268 59.6123C128.177 59.5216 128.238 59.4611 128.45 59.446C128.691 59.4158 128.722 59.4611 128.586 59.5972ZM132.5 59.4611C132.5 59.4914 132.364 59.5518 132.198 59.5972C132.032 59.6425 131.896 59.6123 131.896 59.5367C131.896 59.4611 132.032 59.4007 132.198 59.4007C132.364 59.4007 132.5 59.4309 132.5 59.4611ZM108.861 77.1151C108.921 77.2058 108.906 77.236 108.8 77.1755C108.71 77.1302 108.604 77.1453 108.543 77.2209C108.498 77.2965 108.589 77.4325 108.725 77.5232C108.967 77.6592 108.967 77.6743 108.664 77.6894C108.287 77.6894 108.166 77.1755 108.513 77.0395C108.604 76.9942 108.71 76.9488 108.725 76.9488C108.74 76.9337 108.8 77.0093 108.861 77.1151Z" fill="black" fill-opacity="0.65"/>
<path d="M106.533 47.037C106.624 47.3091 106.956 47.3544 106.956 47.0975C106.956 46.9614 106.851 46.8556 106.715 46.8556C106.579 46.8556 106.503 46.9312 106.533 47.037Z" fill="black" fill-opacity="0.65"/>
<path d="M145.348 50.8763C145.348 50.9972 145.423 51.0576 145.499 51.0123C145.59 50.9669 145.65 50.8611 145.65 50.7705C145.65 50.6949 145.59 50.6344 145.499 50.6344C145.423 50.6344 145.348 50.7402 145.348 50.8763Z" fill="black" fill-opacity="0.65"/>
<path d="M140.133 59.552C140.088 59.6276 140.103 59.7031 140.194 59.7031C140.269 59.7031 140.39 59.6276 140.436 59.552C140.481 59.4613 140.466 59.4008 140.375 59.4008C140.299 59.4008 140.179 59.4613 140.133 59.552Z" fill="black" fill-opacity="0.65"/>
<path d="M153.978 12.8478C153.978 12.9687 154.069 13.271 154.19 13.5279C154.386 13.9814 154.386 13.9814 154.401 13.5884C154.417 13.3768 154.311 13.0745 154.19 12.9082C154.024 12.6966 153.978 12.6815 153.978 12.8478Z" fill="black" fill-opacity="0.65"/>
<path d="M3.11853 16.9732C2.95226 17.2301 2.81623 17.5929 2.81623 17.7591C2.81623 17.9254 2.69531 18.137 2.52905 18.2428C2.18142 18.4695 2.04538 19.5729 2.07561 22.218C2.10584 25.3769 2.0605 26.6466 1.90935 27.4325C1.83378 27.8406 1.72797 29.0347 1.68263 30.0776C1.62217 31.1054 1.56171 31.9972 1.53148 32.0576C1.50125 32.103 1.4408 32.6773 1.39545 33.3424C1.35011 33.9923 1.25942 35.1108 1.21407 35.8212C1.15362 36.5316 1.10827 37.2722 1.10827 37.4838C1.10827 37.6954 0.97224 38.6779 0.805978 39.6754C0.624602 40.673 0.473455 41.8217 0.45834 42.2449C0.443225 42.653 0.397881 43.5448 0.337423 44.2099C0.276964 44.8749 0.216505 45.9632 0.186276 46.6282C0.140932 47.2933 0.0804728 48.442 0.0200141 49.1977C-0.02533 50.029 0.00489939 51.1475 0.125817 52.0695C0.322308 53.4752 0.352537 53.581 0.685061 53.6263C1.56171 53.7623 1.96981 53.5205 3.79869 51.7672C4.78114 50.815 5.64268 50.1046 5.68802 50.1802C5.73337 50.2557 5.89963 50.0895 6.05078 49.8023C6.41353 49.1372 6.74605 49.0012 6.74605 49.5151C6.74605 49.7267 6.80651 49.8628 6.88208 49.8174C6.95766 49.7721 7.04835 49.8779 7.10881 50.0744C7.15415 50.2557 7.5169 50.6034 7.90988 50.8603C8.9528 51.5103 10.5398 51.5556 13.0187 51.0266C14.0162 50.7999 15.1347 50.5883 15.5126 50.558C15.8904 50.5127 16.5706 50.4069 17.024 50.3313C17.4775 50.2557 18.0821 50.1499 18.3693 50.1046C18.7018 50.0441 19.0041 50.1046 19.2308 50.2557C19.5633 50.4673 19.5935 50.4673 19.5935 50.2557C19.5935 50.1197 19.5331 50.0592 19.4424 50.1046C19.3668 50.1499 19.2912 50.0744 19.2912 49.9081C19.2912 49.6814 19.1552 49.5907 18.596 49.5151C17.674 49.3942 16.3741 49.4093 15.4672 49.5605C15.0742 49.6209 14.7115 49.6209 14.6662 49.5453C14.6208 49.4849 14.5301 49.4547 14.4697 49.5C14.3336 49.5756 10.7514 49.7721 9.95037 49.7418C8.60516 49.6965 7.74362 47.6409 8.63539 46.5829C8.847 46.3259 9.01326 45.9934 9.01326 45.8271C9.01326 45.4644 9.25509 45.2528 9.36089 45.5248C9.45158 45.7818 10.1469 45.1016 10.298 44.618C10.4492 44.1192 9.9806 44.1796 9.73876 44.6935C9.63296 44.9354 9.45158 45.1319 9.34578 45.1319C9.25509 45.147 9.10394 45.1621 9.01326 45.1772C8.93768 45.1772 8.86211 45.3283 8.86211 45.4946C8.86211 45.6458 8.74119 45.9027 8.59004 46.0538C8.42378 46.205 8.24241 46.4619 8.16683 46.6282C8.06103 46.87 8.0308 46.7794 7.98546 46.205C7.925 45.3586 8.46913 43.575 9.17952 42.2752C9.51204 41.6555 9.79922 41.3532 10.2678 41.1113C10.6154 40.93 10.9933 40.6428 11.0991 40.4916C11.2049 40.3405 11.3711 40.2045 11.4618 40.2045C11.5676 40.2045 11.5676 40.2649 11.477 40.3858C11.3258 40.5823 11.084 42.0182 11.1898 42.0182C11.2351 42.0182 11.3409 41.7613 11.4467 41.459C11.5374 41.1416 11.7037 40.809 11.7944 40.7032C12.2629 40.1742 12.3536 40.0231 12.4443 39.5848C12.4896 39.3278 12.4443 38.7383 12.3234 38.2849C12.1722 37.6198 12.0362 37.378 11.6734 37.1664C10.9026 36.6979 10.5247 36.7885 9.5725 37.7256C8.847 38.436 7.80408 40.1138 7.80408 40.5823C7.80408 40.6428 7.71339 40.8997 7.59248 41.1567C7.48667 41.4288 7.3053 41.9426 7.21461 42.3205C7.01812 43.0309 6.86697 43.4843 6.4891 44.5121C6.36819 44.8447 6.23215 45.8271 6.18681 46.7038L6.11124 48.2908L5.41596 49.0012C5.02298 49.4093 4.67534 49.7267 4.61488 49.7267C4.56954 49.7267 3.98006 50.2708 3.31502 50.9359C2.64997 51.6009 2.03027 52.1451 1.93958 52.1451C1.6524 52.1451 1.56171 51.1324 1.66752 49.2884C1.83378 46.2503 2.21164 42.0031 2.45348 40.4312C2.64997 39.1011 3.11853 34.0528 3.40571 30.1985C3.45105 29.473 3.58708 28.7929 3.69288 28.6871C3.8138 28.5661 3.87426 28.0371 3.87426 27.1756C3.87426 25.9211 3.90449 25.8002 4.26724 25.4676C4.47885 25.2711 4.63 25.0142 4.58465 24.9084C4.55442 24.8026 4.61488 24.3945 4.7358 23.9864C4.85672 23.5934 4.90206 23.2004 4.85672 23.1249C4.81137 23.0493 4.87183 22.8226 4.97763 22.6412C5.11367 22.4296 5.20435 21.825 5.21947 21.1146C5.23458 19.9659 5.23458 19.9357 4.91717 20.0263C4.59977 20.1321 4.58465 20.1019 4.67534 19.3613C4.7358 18.8474 4.69045 18.3637 4.52419 17.8801C4.17655 16.8371 4.13121 16.7465 3.75334 16.6104C3.46616 16.5046 3.36036 16.5651 3.11853 16.9732ZM4.63 22.747C4.63 22.8679 4.52419 22.9737 4.40328 22.9737C4.28236 22.9737 4.17655 22.8679 4.17655 22.747C4.17655 22.6261 4.28236 22.5203 4.40328 22.5203C4.52419 22.5203 4.63 22.6261 4.63 22.747ZM4.29747 23.7294C4.29747 24.0317 4.23701 24.1829 4.08587 24.1829C3.87426 24.1829 3.78357 23.5632 3.98006 23.3818C4.17655 23.1702 4.28236 23.2911 4.29747 23.7294Z" fill="black" fill-opacity="0.65"/>
<path d="M5.05319 18.2282C4.97761 18.2887 4.93227 18.5457 4.94738 18.8026C4.94738 19.256 4.94738 19.256 5.09853 18.9084C5.26479 18.5003 5.21945 18.0469 5.05319 18.2282Z" fill="black" fill-opacity="0.65"/>
<path d="M34.7385 22.4143C34.3757 22.9886 34.3002 23.5025 34.6025 23.3514C34.6932 23.2909 34.6629 23.3514 34.5269 23.4723C34.2246 23.7141 33.7409 25.543 33.9828 25.543C34.0583 25.543 34.0735 25.679 34.013 25.8755C33.9525 26.072 33.877 27.4777 33.8618 29.0194C33.8467 30.5611 33.7863 32.7678 33.7409 33.9317C33.6956 35.0955 33.6502 36.2895 33.6502 36.5767C33.6502 36.8639 33.5142 38.1184 33.3479 39.3729C32.5771 45.2374 32.4108 48.9254 32.7282 53.5808C32.9399 56.5886 33.3177 57.7222 34.1037 57.7373C34.7385 57.7373 34.9803 57.5257 35.3884 56.6339C35.6303 56.12 35.857 55.6666 35.9023 55.6212C36.0232 55.5306 36.2953 55.0771 36.6581 54.397C36.9604 53.8528 37.7312 50.9961 37.7312 50.4671C37.7312 50.3009 37.7917 50.18 37.8824 50.18C38.0486 50.18 38.0335 48.5325 37.8672 48.4418C37.7614 48.3662 37.5801 49.1068 37.5801 49.6661C37.5801 49.8928 37.4894 50.0288 37.3533 50.0288C37.2324 50.0288 37.1266 50.1346 37.1266 50.2555C37.1266 50.3764 36.8848 50.9206 36.5976 51.4798C36.3104 52.0239 36.0686 52.5681 36.0686 52.689C36.0686 53.0215 35.3129 54.5632 34.9954 54.8806C34.7838 55.0922 34.6932 55.1073 34.6025 54.9713C34.542 54.8655 34.4664 52.9157 34.4362 50.6334C34.3909 47.5198 34.4513 45.963 34.6176 44.4364C34.8443 42.5924 35.3582 37.4987 35.5245 35.5943C35.6303 34.4758 35.6756 34.2793 35.9779 33.8259C36.1291 33.5991 36.2046 33.2968 36.1593 33.1457C36.1139 32.9945 36.1593 32.526 36.2651 32.1179C36.4767 31.2715 36.386 29.8507 36.1593 30.2286C36.0384 30.3948 35.993 30.3495 35.8872 30.0018C35.7965 29.6542 35.8419 29.4879 36.0988 29.2159C36.3709 28.9287 36.4313 28.6415 36.4918 27.4777C36.5674 25.7999 36.5674 25.7848 36.4616 25.014C36.4011 24.6815 36.3255 23.9257 36.2651 23.3514C36.2197 22.7619 36.0988 22.248 36.0081 22.1875C35.721 21.991 35.464 22.0515 35.464 22.3236C35.4489 22.5352 35.4035 22.5201 35.2524 22.2329L35.0559 21.8852L34.7385 22.4143ZM34.8594 24.6512C34.8594 24.8175 34.799 24.9233 34.7083 24.8628C34.6327 24.8175 34.6025 24.6815 34.6629 24.5605C34.7687 24.2431 34.8594 24.2734 34.8594 24.6512ZM34.3606 25.8755C34.3153 25.9964 34.2699 25.9511 34.2699 25.7848C34.2548 25.6186 34.3002 25.5279 34.3455 25.5883C34.3909 25.6337 34.406 25.7697 34.3606 25.8755ZM35.8721 31.9214C35.8419 32.1179 35.8116 31.997 35.8116 31.6645C35.7965 31.3319 35.8268 31.1808 35.8721 31.3168C35.9023 31.468 35.9023 31.74 35.8721 31.9214Z" fill="black" fill-opacity="0.65"/>
<path d="M39.8623 29.8674C39.8623 30.0336 39.9077 30.079 39.953 29.9581C39.9983 29.8522 39.9832 29.7162 39.9379 29.6709C39.8925 29.6104 39.8472 29.7011 39.8623 29.8674Z" fill="black" fill-opacity="0.65"/>
<path d="M38.6683 42.1706C38.6683 42.3822 38.6985 42.4577 38.7439 42.3519C38.7741 42.2612 38.7741 42.0799 38.7439 41.9741C38.6985 41.8834 38.6683 41.959 38.6683 42.1706Z" fill="black" fill-opacity="0.65"/>
<path d="M10.6306 43.787C10.5701 43.8324 10.5247 43.9533 10.5247 44.044C10.5247 44.1347 10.6003 44.1195 10.7061 44.0137C10.7968 43.9231 10.8422 43.8021 10.8119 43.7568C10.7666 43.7114 10.6759 43.7266 10.6306 43.787Z" fill="black" fill-opacity="0.65"/>
<path d="M38.4869 44.6638C38.4869 44.8905 38.5474 45.0266 38.6381 44.9661C38.7287 44.9208 38.7892 44.7847 38.7892 44.6638C38.7892 44.5429 38.7287 44.4069 38.6381 44.3615C38.5474 44.3011 38.4869 44.4371 38.4869 44.6638Z" fill="black" fill-opacity="0.65"/>
<path d="M38.1242 46.7344C38.0788 46.9913 38.0939 47.2785 38.1695 47.3541C38.2451 47.4296 38.3207 47.2634 38.366 46.9308C38.4416 46.2507 38.2602 46.0844 38.1242 46.7344Z" fill="black" fill-opacity="0.65"/>
<path d="M21.498 48.0348C21.4526 48.0802 21.4073 48.2615 21.4073 48.458C21.4073 48.6394 21.3015 48.8208 21.1806 48.8812C20.576 49.108 21.3317 50.1811 22.1026 50.1811C22.2991 50.1811 22.4653 50.2416 22.4653 50.3323C22.4653 50.4078 22.5711 50.4834 22.692 50.4834C22.9943 50.4834 22.9943 49.5312 22.7072 49.2742C22.5862 49.1835 22.4653 48.8964 22.4351 48.6243C22.4049 48.2615 22.2991 48.1406 21.9817 48.0499C21.7549 47.9895 21.5433 47.9895 21.498 48.0348Z" fill="black" fill-opacity="0.65"/>
<path d="M71.4369 50.634C71.4369 50.7096 71.5125 50.7852 71.6032 50.7852C71.6788 50.7852 71.709 50.7096 71.6636 50.634C71.6183 50.5433 71.5427 50.4829 71.4974 50.4829C71.4671 50.4829 71.4369 50.5433 71.4369 50.634Z" fill="black" fill-opacity="0.65"/>
<path d="M115.527 53.34C115.254 53.869 115.39 53.9597 115.799 53.5063C115.995 53.2796 116.025 53.1435 115.92 53.0377C115.799 52.9168 115.693 53.0075 115.527 53.34Z" fill="black" fill-opacity="0.65"/>
<path d="M121.315 54.6395C121.315 54.7604 121.391 54.8662 121.467 54.8662C121.557 54.8662 121.618 54.7604 121.618 54.6395C121.618 54.5186 121.557 54.4128 121.467 54.4128C121.391 54.4128 121.315 54.5186 121.315 54.6395Z" fill="black" fill-opacity="0.65"/>
<path d="M178.252 59.8085C178.192 59.8538 178.147 59.9748 178.147 60.0655C178.147 60.1561 178.222 60.141 178.328 60.0352C178.419 59.9445 178.464 59.8236 178.434 59.7783C178.389 59.7329 178.298 59.748 178.252 59.8085Z" fill="black" fill-opacity="0.65"/>
<path d="M172.902 60.1408C172.736 60.4129 172.781 60.6094 173.023 60.6094C173.189 60.6094 173.295 60.2164 173.174 60.035C173.113 59.9292 173.008 59.9594 172.902 60.1408Z" fill="black" fill-opacity="0.65"/>
<path d="M174.882 60.1713C174.837 60.262 174.867 60.4131 174.957 60.5038C175.078 60.6247 175.124 60.5794 175.124 60.3375C175.124 59.9748 175.048 59.9143 174.882 60.1713Z" fill="black" fill-opacity="0.65"/>
<path d="M171.496 60.3069C171.496 60.3824 171.602 60.458 171.738 60.458C171.859 60.458 171.919 60.3824 171.874 60.3069C171.829 60.2162 171.723 60.1557 171.632 60.1557C171.557 60.1557 171.496 60.2162 171.496 60.3069Z" fill="black" fill-opacity="0.65"/>
<path d="M102.679 72.9582C102.483 73.1396 102.573 73.457 102.8 73.457C102.921 73.457 103.027 73.321 103.027 73.1547C103.027 72.8524 102.86 72.7618 102.679 72.9582Z" fill="black" fill-opacity="0.65"/>
<path d="M101.893 74.561C101.833 74.6819 101.772 74.8784 101.757 74.9993C101.727 75.1051 101.636 75.362 101.561 75.5736C101.47 75.7852 101.455 76.012 101.515 76.0875C101.666 76.2387 102.165 76.0875 102.059 75.9062C102.014 75.8457 102.044 75.5132 102.12 75.1807C102.256 74.5761 102.074 74.0773 101.893 74.561Z" fill="black" fill-opacity="0.65"/>
<path d="M108.09 79.6555C108.045 79.7311 108.075 79.8066 108.151 79.8066C108.241 79.8066 108.317 79.7311 108.317 79.6555C108.317 79.5648 108.287 79.5043 108.256 79.5043C108.211 79.5043 108.135 79.5648 108.09 79.6555Z" fill="black" fill-opacity="0.65"/>
<path d="M60.3276 101.722C60.3881 101.813 60.4939 101.843 60.5695 101.798C60.7811 101.661 60.7357 101.571 60.4636 101.571C60.3427 101.571 60.2823 101.646 60.3276 101.722Z" fill="black" fill-opacity="0.65"/>
<path d="M59.4208 119.572C59.3603 119.663 59.4056 119.799 59.5114 119.875C59.8289 120.071 59.98 120.041 59.9195 119.754C59.8591 119.451 59.5568 119.331 59.4208 119.572Z" fill="black" fill-opacity="0.65"/>
</svg>
