<svg width="475" height="323" viewBox="0 0 475 323" fill="none" xmlns="http://www.w3.org/2000/svg">
<path d="M30.7937 4.29628C21.327 19.7629 16.7937 36.6963 16.7937 57.8963C16.7937 76.963 18.927 86.2963 26.927 102.563C31.4604 111.896 34.6604 116.163 45.5937 127.096C58.127 139.63 58.927 140.696 60.2604 147.763C65.1937 175.23 94.2604 204.83 134.66 223.763C171.194 240.83 230.527 254.696 269.06 255.096C282.26 255.23 285.594 254.83 286.66 253.23C288.527 250.163 286.26 249.63 265.994 247.896C218.527 244.163 171.194 232.43 136.527 215.896C109.86 203.363 87.8604 185.63 76.2604 167.496C71.727 160.163 66.127 146.696 67.1937 145.496C67.5937 145.096 72.2604 146.163 77.5937 147.763C89.0604 151.096 95.727 151.23 104.794 148.563C114.26 145.763 120.127 139.363 121.06 130.696C121.86 121.896 120.794 118.296 115.86 112.696C110.26 106.296 102.26 103.496 91.727 104.163C77.727 105.096 67.8604 111.763 63.0604 123.363C61.727 126.563 59.8604 129.23 58.7937 129.23C56.127 129.23 41.9937 114.03 36.7937 105.363C21.4604 80.2963 19.8604 44.8296 32.527 13.7629C35.1937 7.36295 36.927 1.62961 36.527 1.09628C35.1937 -1.03705 33.5937 -0.103729 30.7937 4.29628ZM101.594 111.896C107.86 113.763 114.66 121.363 114.66 126.696C114.66 137.096 106.394 143.23 91.9937 143.096C79.9937 143.096 67.9937 137.763 67.9937 132.43C67.9937 125.763 74.2604 117.363 81.727 113.763C89.327 110.296 93.9937 109.896 101.594 111.896Z" fill="black" fill-opacity="0.65"/>
<path d="M1.86043 52.5628C-2.80624 63.8962 1.99376 91.2295 8.66043 91.2295C11.8604 91.2295 11.8604 89.4962 9.3271 64.8295C7.46043 46.5628 5.59376 43.6295 1.86043 52.5628Z" fill="black" fill-opacity="0.65"/>
<path d="M125.327 183.629C125.327 187.095 136.394 197.895 146.927 204.829C160.927 213.895 174.26 218.295 197.06 221.095C207.46 222.429 211.994 221.895 211.994 219.229C211.994 217.095 207.594 215.362 193.327 211.895C167.994 205.629 150.527 198.162 136.394 187.095C128.26 180.695 125.327 179.895 125.327 183.629Z" fill="black" fill-opacity="0.65"/>
<path d="M374.927 198.829C373.327 200.829 370.66 209.229 366.66 224.696L363.727 235.629L342.26 243.896C317.594 253.362 314.66 254.962 314.66 258.562C314.66 262.829 320.26 265.229 338.527 268.562C348.127 270.296 356.527 272.029 357.327 272.562C359.06 273.629 359.06 284.696 357.194 303.496C355.46 321.096 355.994 322.562 364.394 322.562C367.327 322.562 387.86 317.496 409.86 311.229C431.994 305.096 454.127 299.096 459.327 297.896C470.394 295.362 474.927 292.696 474.394 289.229C474.127 287.762 468.394 281.762 461.46 275.629C454.527 269.496 439.86 254.962 428.927 243.229C395.46 207.496 392.66 204.696 388.127 200.829C383.594 196.962 377.327 196.029 374.927 198.829ZM399.594 223.496C408.26 232.829 421.06 246.429 427.994 253.629C434.927 260.829 440.794 267.362 441.06 268.029C441.594 269.229 434.927 266.296 394.927 247.629C377.327 239.362 371.994 236.296 372.394 234.696C377.594 216.162 380.927 206.562 382.26 206.562C383.06 206.562 390.794 214.162 399.594 223.496ZM411.86 263.496C446.127 280.696 451.46 283.896 443.727 282.962C417.86 279.762 375.994 271.096 362.66 266.162C357.86 264.429 349.86 262.162 344.66 261.229C339.594 260.162 334.794 258.962 334.127 258.429C333.46 257.896 337.994 255.096 344.127 252.429C350.127 249.629 357.594 246.029 360.527 244.429L365.86 241.629L372.527 244.296C376.26 245.896 393.994 254.429 411.86 263.496ZM379.86 278.562C389.327 280.962 439.327 290.562 443.06 290.562C446.527 290.696 439.994 293.096 425.327 297.229C416.927 299.496 400.26 304.696 388.26 308.696C376.394 312.696 365.994 315.896 365.194 315.896C363.727 315.896 363.86 311.229 366.127 284.829C366.527 279.896 367.46 275.896 368.26 275.896C368.927 275.896 374.26 277.096 379.86 278.562Z" fill="black" fill-opacity="0.65"/>
</svg>
