<svg xmlns="http://www.w3.org/2000/svg" xmlns:xlink="http://www.w3.org/1999/xlink" viewBox="0 0 1000 1000" width="1000" height="1000" preserveAspectRatio="xMidYMid meet" style="width: 100%; height: 100%; transform: translate3d(0px, 0px, 0px); content-visibility: visible;" id="Pastry"><defs><clipPath id="__lottie_element_1844"><rect width="1000" height="1000" x="0" y="0"/></clipPath></defs><g clip-path="url(#__lottie_element_1844)"><g transform="matrix(1,0,0,0,543.676025390625,278.60101318359375)" opacity="1" style="display: block;"><g opacity="1" transform="matrix(1,0,0,1,36.33599853515625,53.672000885009766)"><path fill="rgb(255,200,39)" fill-opacity="1" d=" M0,38.672000885009766 C-11.782999992370605,38.672000885009766 -21.336000442504883,29.1200008392334 -21.336000442504883,17.336000442504883 C-21.336000442504883,17.336000442504883 -21.336000442504883,-17.336000442504883 -21.336000442504883,-17.336000442504883 C-21.336000442504883,-29.118999481201172 -11.782999992370605,-38.672000885009766 0,-38.672000885009766 C11.782999992370605,-38.672000885009766 21.336000442504883,-29.118999481201172 21.336000442504883,-17.336000442504883 C21.336000442504883,-17.336000442504883 21.336000442504883,17.336000442504883 21.336000442504883,17.336000442504883 C21.336000442504883,29.1200008392334 11.782999992370605,38.672000885009766 0,38.672000885009766z"/><path stroke-linecap="butt" stroke-linejoin="miter" fill-opacity="0" stroke-miterlimit="10" stroke="rgb(0,0,0)" stroke-opacity="1" stroke-width="6" d=" M0,38.672000885009766 C-11.782999992370605,38.672000885009766 -21.336000442504883,29.1200008392334 -21.336000442504883,17.336000442504883 C-21.336000442504883,17.336000442504883 -21.336000442504883,-17.336000442504883 -21.336000442504883,-17.336000442504883 C-21.336000442504883,-29.118999481201172 -11.782999992370605,-38.672000885009766 0,-38.672000885009766 C11.782999992370605,-38.672000885009766 21.336000442504883,-29.118999481201172 21.336000442504883,-17.336000442504883 C21.336000442504883,-17.336000442504883 21.336000442504883,17.336000442504883 21.336000442504883,17.336000442504883 C21.336000442504883,29.1200008392334 11.782999992370605,38.672000885009766 0,38.672000885009766z"/></g></g><g transform="matrix(1,0,0,0,383.6520080566406,279.10101318359375)" opacity="1" style="display: block;"><g opacity="1" transform="matrix(1,0,0,1,36.33599853515625,53.672000885009766)"><path fill="rgb(255,200,39)" fill-opacity="1" d=" M0,38.672000885009766 C-11.782999992370605,38.672000885009766 -21.336000442504883,29.1200008392334 -21.336000442504883,17.336000442504883 C-21.336000442504883,17.336000442504883 -21.336000442504883,-17.336000442504883 -21.336000442504883,-17.336000442504883 C-21.336000442504883,-29.118999481201172 -11.782999992370605,-38.672000885009766 0,-38.672000885009766 C11.782999992370605,-38.672000885009766 21.336000442504883,-29.118999481201172 21.336000442504883,-17.336000442504883 C21.336000442504883,-17.336000442504883 21.336000442504883,17.336000442504883 21.336000442504883,17.336000442504883 C21.336000442504883,29.1200008392334 11.782999992370605,38.672000885009766 0,38.672000885009766z"/><path stroke-linecap="butt" stroke-linejoin="miter" fill-opacity="0" stroke-miterlimit="10" stroke="rgb(0,0,0)" stroke-opacity="1" stroke-width="6" d=" M0,38.672000885009766 C-11.782999992370605,38.672000885009766 -21.336000442504883,29.1200008392334 -21.336000442504883,17.336000442504883 C-21.336000442504883,17.336000442504883 -21.336000442504883,-17.336000442504883 -21.336000442504883,-17.336000442504883 C-21.336000442504883,-29.118999481201172 -11.782999992370605,-38.672000885009766 0,-38.672000885009766 C11.782999992370605,-38.672000885009766 21.336000442504883,-29.118999481201172 21.336000442504883,-17.336000442504883 C21.336000442504883,-17.336000442504883 21.336000442504883,17.336000442504883 21.336000442504883,17.336000442504883 C21.336000442504883,29.1200008392334 11.782999992370605,38.672000885009766 0,38.672000885009766z"/></g></g><g transform="matrix(1,0,0,1.0943394899368286,543.676025390625,267.24920654296875)" opacity="1" style="display: block;"><g opacity="1" transform="matrix(1,0,0,1,36.33599853515625,100.34700012207031)"><path fill="rgb(239,25,123)" fill-opacity="1" d=" M0,85.34600067138672 C-11.782999992370605,85.34600067138672 -21.336000442504883,75.79299926757812 -21.336000442504883,64.01000213623047 C-21.336000442504883,64.01000213623047 -21.336000442504883,-64.00900268554688 -21.336000442504883,-64.00900268554688 C-21.336000442504883,-75.79199981689453 -11.782999992370605,-85.34600067138672 0,-85.34600067138672 C11.782999992370605,-85.34600067138672 21.336000442504883,-75.79199981689453 21.336000442504883,-64.00900268554688 C21.336000442504883,-64.00900268554688 21.336000442504883,64.01000213623047 21.336000442504883,64.01000213623047 C21.336000442504883,75.79299926757812 11.782999992370605,85.34600067138672 0,85.34600067138672z"/><path stroke-linecap="butt" stroke-linejoin="miter" fill-opacity="0" stroke-miterlimit="10" stroke="rgb(0,0,0)" stroke-opacity="1" stroke-width="6" d=" M0,85.34600067138672 C-11.782999992370605,85.34600067138672 -21.336000442504883,75.79299926757812 -21.336000442504883,64.01000213623047 C-21.336000442504883,64.01000213623047 -21.336000442504883,-64.00900268554688 -21.336000442504883,-64.00900268554688 C-21.336000442504883,-75.79199981689453 -11.782999992370605,-85.34600067138672 0,-85.34600067138672 C11.782999992370605,-85.34600067138672 21.336000442504883,-75.79199981689453 21.336000442504883,-64.00900268554688 C21.336000442504883,-64.00900268554688 21.336000442504883,64.01000213623047 21.336000442504883,64.01000213623047 C21.336000442504883,75.79299926757812 11.782999992370605,85.34600067138672 0,85.34600067138672z"/></g></g><g transform="matrix(1,0,0,1.0000030994415283,383.6520080566406,284.82843017578125)" opacity="1" style="display: block;"><g opacity="1" transform="matrix(1,0,0,1,36.33599853515625,100.34700012207031)"><path fill="rgb(239,25,123)" fill-opacity="1" d=" M0,85.34600067138672 C-11.782999992370605,85.34600067138672 -21.336000442504883,75.79299926757812 -21.336000442504883,64.01000213623047 C-21.336000442504883,64.01000213623047 -21.336000442504883,-64.00900268554688 -21.336000442504883,-64.00900268554688 C-21.336000442504883,-75.79199981689453 -11.782999992370605,-85.34600067138672 0,-85.34600067138672 C11.782999992370605,-85.34600067138672 21.336000442504883,-75.79199981689453 21.336000442504883,-64.00900268554688 C21.336000442504883,-64.00900268554688 21.336000442504883,64.01000213623047 21.336000442504883,64.01000213623047 C21.336000442504883,75.79299926757812 11.782999992370605,85.34600067138672 0,85.34600067138672z"/><path stroke-linecap="butt" stroke-linejoin="miter" fill-opacity="0" stroke-miterlimit="10" stroke="rgb(0,0,0)" stroke-opacity="1" stroke-width="6" d=" M0,85.34600067138672 C-11.782999992370605,85.34600067138672 -21.336000442504883,75.79299926757812 -21.336000442504883,64.01000213623047 C-21.336000442504883,64.01000213623047 -21.336000442504883,-64.00900268554688 -21.336000442504883,-64.00900268554688 C-21.336000442504883,-75.79199981689453 -11.782999992370605,-85.34600067138672 0,-85.34600067138672 C11.782999992370605,-85.34600067138672 21.336000442504883,-75.79199981689453 21.336000442504883,-64.00900268554688 C21.336000442504883,-64.00900268554688 21.336000442504883,64.01000213623047 21.336000442504883,64.01000213623047 C21.336000442504883,75.79299926757812 11.782999992370605,85.34600067138672 0,85.34600067138672z"/></g></g><g transform="matrix(1,0,0,1,191.58401489257812,434.18603515625)" opacity="1" style="display: block;"><g opacity="1" transform="matrix(1,0,0,1,308.4159851074219,96.6989974975586)"><path fill="rgb(255,200,39)" fill-opacity="1" d=" M293.4150085449219,81.6989974975586 C293.4150085449219,81.6989974975586 293.4150085449219,-27.961999893188477 293.4150085449219,-27.961999893188477 C293.4150085449219,-57.63999938964844 269.3559875488281,-81.6989974975586 239.67799377441406,-81.6989974975586 C239.67799377441406,-81.6989974975586 -239.67799377441406,-81.6989974975586 -239.67799377441406,-81.6989974975586 C-269.3559875488281,-81.6989974975586 -293.4150085449219,-57.63999938964844 -293.4150085449219,-27.961999893188477 C-293.4150085449219,-27.961999893188477 -293.4150085449219,81.6989974975586 -293.4150085449219,81.6989974975586 C-293.4150085449219,81.6989974975586 293.4150085449219,81.6989974975586 293.4150085449219,81.6989974975586z"/><path stroke-linecap="butt" stroke-linejoin="miter" fill-opacity="0" stroke-miterlimit="10" stroke="rgb(0,0,0)" stroke-opacity="1" stroke-width="6" d=" M293.4150085449219,81.6989974975586 C293.4150085449219,81.6989974975586 293.4150085449219,-27.961999893188477 293.4150085449219,-27.961999893188477 C293.4150085449219,-57.63999938964844 269.3559875488281,-81.6989974975586 239.67799377441406,-81.6989974975586 C239.67799377441406,-81.6989974975586 -239.67799377441406,-81.6989974975586 -239.67799377441406,-81.6989974975586 C-269.3559875488281,-81.6989974975586 -293.4150085449219,-57.63999938964844 -293.4150085449219,-27.961999893188477 C-293.4150085449219,-27.961999893188477 -293.4150085449219,81.6989974975586 -293.4150085449219,81.6989974975586 C-293.4150085449219,81.6989974975586 293.4150085449219,81.6989974975586 293.4150085449219,81.6989974975586z"/></g><g opacity="1" transform="matrix(1,0,0,1,308.4150085449219,224.36500549316406)"><path fill="rgb(239,25,123)" fill-opacity="1" d=" M175.99600219726562,-140.02099609375 C146.66099548339844,-140.02099609375 146.66000366210938,-108.01599884033203 117.32499694824219,-108.01599884033203 C87.98100280761719,-108.01599884033203 87.98100280761719,-140.02099609375 58.637001037597656,-140.02099609375 C29.30299949645996,-140.02099609375 29.304000854492188,-108.01599884033203 -0.029999999329447746,-108.01599884033203 C-29.371999740600586,-108.01599884033203 -29.37299919128418,-140.02099609375 -58.71500015258789,-140.02099609375 C-88.0530014038086,-140.02099609375 -88.052001953125,-108.01599884033203 -117.39099884033203,-108.01599884033203 C-146.72900390625,-108.01599884033203 -146.72900390625,-140.02099609375 -176.0659942626953,-140.02099609375 C-205.4010009765625,-140.02099609375 -205.4010009765625,-108.01599884033203 -234.73599243164062,-108.01599884033203 C-264.07501220703125,-108.01599884033203 -264.07501220703125,-140.02099609375 -293.4150085449219,-140.02099609375 C-293.4150085449219,-140.02099609375 -293.4150085449219,81.4469985961914 -293.4150085449219,81.4469985961914 C-293.4150085449219,113.7969970703125 -273.51800537109375,140.02099609375 -248.9739990234375,140.02099609375 C-248.9739990234375,140.02099609375 248.9739990234375,140.02099609375 248.9739990234375,140.02099609375 C273.51800537109375,140.02099609375 293.4150085449219,113.7969970703125 293.4150085449219,81.4469985961914 C293.4150085449219,81.4469985961914 293.4150085449219,-140.02099609375 293.4150085449219,-140.02099609375 C264.05999755859375,-140.02099609375 264.05999755859375,-108.01599884033203 234.7050018310547,-108.01599884033203 C205.35000610351562,-108.01599884033203 205.3509979248047,-140.02099609375 175.99600219726562,-140.02099609375z"/><path stroke-linecap="butt" stroke-linejoin="miter" fill-opacity="0" stroke-miterlimit="10" stroke="rgb(0,0,0)" stroke-opacity="1" stroke-width="6" d=" M175.99600219726562,-140.02099609375 C146.66099548339844,-140.02099609375 146.66000366210938,-108.01599884033203 117.32499694824219,-108.01599884033203 C87.98100280761719,-108.01599884033203 87.98100280761719,-140.02099609375 58.637001037597656,-140.02099609375 C29.30299949645996,-140.02099609375 29.304000854492188,-108.01599884033203 -0.029999999329447746,-108.01599884033203 C-29.371999740600586,-108.01599884033203 -29.37299919128418,-140.02099609375 -58.71500015258789,-140.02099609375 C-88.0530014038086,-140.02099609375 -88.052001953125,-108.01599884033203 -117.39099884033203,-108.01599884033203 C-146.72900390625,-108.01599884033203 -146.72900390625,-140.02099609375 -176.0659942626953,-140.02099609375 C-205.4010009765625,-140.02099609375 -205.4010009765625,-108.01599884033203 -234.73599243164062,-108.01599884033203 C-264.07501220703125,-108.01599884033203 -264.07501220703125,-140.02099609375 -293.4150085449219,-140.02099609375 C-293.4150085449219,-140.02099609375 -293.4150085449219,81.4469985961914 -293.4150085449219,81.4469985961914 C-293.4150085449219,113.7969970703125 -273.51800537109375,140.02099609375 -248.9739990234375,140.02099609375 C-248.9739990234375,140.02099609375 248.9739990234375,140.02099609375 248.9739990234375,140.02099609375 C273.51800537109375,140.02099609375 293.4150085449219,113.7969970703125 293.4150085449219,81.4469985961914 C293.4150085449219,81.4469985961914 293.4150085449219,-140.02099609375 293.4150085449219,-140.02099609375 C264.05999755859375,-140.02099609375 264.05999755859375,-108.01599884033203 234.7050018310547,-108.01599884033203 C205.35000610351562,-108.01599884033203 205.3509979248047,-140.02099609375 175.99600219726562,-140.02099609375z"/></g><g opacity="1" transform="matrix(1,0,0,1,308.4159851074219,100.34400177001953)"><path fill="rgb(255,255,255)" fill-opacity="1" d=" M234.70599365234375,29.33799934387207 C214.16400146484375,29.33799934387207 203.38900756835938,17.590999603271484 195.5229949951172,9.01200008392334 C188.28799438476562,1.1260000467300415 184.43299865722656,-2.6670000553131104 175.99400329589844,-2.6670000553131104 C167.5679931640625,-2.6670000553131104 163.7209930419922,1.1260000467300415 156.49400329589844,9.01200008392334 C148.63099670410156,17.590999603271484 137.86099243164062,29.33799934387207 117.3270034790039,29.33799934387207 C96.78700256347656,29.33799934387207 86.01699829101562,17.590999603271484 78.1520004272461,9.01200008392334 C70.9209976196289,1.1260000467300415 67.06900024414062,-2.6670000553131104 58.63800048828125,-2.6670000553131104 C50.209999084472656,-2.6670000553131104 46.362998962402344,1.1260000467300415 39.132999420166016,9.01200008392334 C31.27199935913086,17.590999603271484 20.50200080871582,29.33799934387207 -0.028999999165534973,29.33799934387207 C-20.56599998474121,29.33799934387207 -31.336000442504883,17.590999603271484 -39.20199966430664,9.01200008392334 C-46.43199920654297,1.1260000467300415 -50.28499984741211,-2.6670000553131104 -58.71500015258789,-2.6670000553131104 C-67.14399719238281,-2.6670000553131104 -70.99299621582031,1.1260000467300415 -78.2229995727539,9.01200008392334 C-86.08699798583984,17.590999603271484 -96.85700225830078,29.33799934387207 -117.39099884033203,29.33799934387207 C-137.9250030517578,29.33799934387207 -148.69500732421875,17.590999603271484 -156.55799865722656,9.01200008392334 C-163.78799438476562,1.1260000467300415 -167.63800048828125,-2.6670000553131104 -176.0659942626953,-2.6670000553131104 C-184.49200439453125,-2.6670000553131104 -188.3419952392578,1.1260000467300415 -195.57200622558594,9.01200008392334 C-203.43499755859375,17.590999603271484 -214.20199584960938,29.33799934387207 -234.73699951171875,29.33799934387207 C-255.2729949951172,29.33799934387207 -266.0429992675781,17.590999603271484 -273.906005859375,9.01200008392334 C-281.1369934082031,1.1260000467300415 -284.9859924316406,-2.6670000553131104 -293.4150085449219,-2.6670000553131104 C-293.4150085449219,-2.6670000553131104 -293.4150085449219,-29.33799934387207 -293.4150085449219,-29.33799934387207 C-272.8800048828125,-29.33799934387207 -262.1099853515625,-17.590999603271484 -254.2469940185547,-9.01200008392334 C-247.01699829101562,-1.125 -243.16700744628906,2.6670000553131104 -234.73699951171875,2.6670000553131104 C-226.30799865722656,2.6670000553131104 -222.46099853515625,-1.125 -215.2310028076172,-9.01200008392334 C-207.3679962158203,-17.590999603271484 -196.6009979248047,-29.33799934387207 -176.0659942626953,-29.33799934387207 C-155.53199768066406,-29.33799934387207 -144.76199340820312,-17.590999603271484 -136.8990020751953,-9.01200008392334 C-129.66900634765625,-1.125 -125.81900024414062,2.6670000553131104 -117.39099884033203,2.6670000553131104 C-108.96299743652344,2.6670000553131104 -105.11299896240234,-1.125 -97.88300323486328,-9.01200008392334 C-90.0199966430664,-17.590999603271484 -79.25,-29.33799934387207 -58.71500015258789,-29.33799934387207 C-38.17900085449219,-29.33799934387207 -27.409000396728516,-17.590999603271484 -19.542999267578125,-9.01200008392334 C-12.312999725341797,-1.125 -8.460000038146973,2.6670000553131104 -0.028999999165534973,2.6670000553131104 C8.395999908447266,2.6670000553131104 12.243000030517578,-1.125 19.47100067138672,-9.01200008392334 C27.333999633789062,-17.590999603271484 38.104000091552734,-29.33799934387207 58.63800048828125,-29.33799934387207 C79.17500305175781,-29.33799934387207 89.94499969482422,-17.590999603271484 97.81099700927734,-9.01200008392334 C105.04299926757812,-1.125 108.89299774169922,2.6670000553131104 117.3270034790039,2.6670000553131104 C125.75499725341797,2.6670000553131104 129.6020050048828,-1.125 136.83200073242188,-9.01200008392334 C144.6929931640625,-17.590999603271484 155.46200561523438,-29.33799934387207 175.99400329589844,-29.33799934387207 C196.53599548339844,-29.33799934387207 207.31100463867188,-17.590999603271484 215.177001953125,-9.01200008392334 C222.41299438476562,-1.125 226.26699829101562,2.6670000553131104 234.70599365234375,2.6670000553131104 C243.14500427246094,2.6670000553131104 246.9969940185547,-1.125 254.23300170898438,-9.01200008392334 C262.0979919433594,-17.590999603271484 272.87298583984375,-29.33799934387207 293.4150085449219,-29.33799934387207 C293.4150085449219,-29.33799934387207 293.4150085449219,-2.6670000553131104 293.4150085449219,-2.6670000553131104 C284.97698974609375,-2.6670000553131104 281.12200927734375,1.1260000467300415 273.8869934082031,9.01200008392334 C266.02099609375,17.590999603271484 255.24600219726562,29.33799934387207 234.70599365234375,29.33799934387207z"/><path stroke-linecap="butt" stroke-linejoin="miter" fill-opacity="0" stroke-miterlimit="10" stroke="rgb(0,0,0)" stroke-opacity="1" stroke-width="6" d=" M234.70599365234375,29.33799934387207 C214.16400146484375,29.33799934387207 203.38900756835938,17.590999603271484 195.5229949951172,9.01200008392334 C188.28799438476562,1.1260000467300415 184.43299865722656,-2.6670000553131104 175.99400329589844,-2.6670000553131104 C167.5679931640625,-2.6670000553131104 163.7209930419922,1.1260000467300415 156.49400329589844,9.01200008392334 C148.63099670410156,17.590999603271484 137.86099243164062,29.33799934387207 117.3270034790039,29.33799934387207 C96.78700256347656,29.33799934387207 86.01699829101562,17.590999603271484 78.1520004272461,9.01200008392334 C70.9209976196289,1.1260000467300415 67.06900024414062,-2.6670000553131104 58.63800048828125,-2.6670000553131104 C50.209999084472656,-2.6670000553131104 46.362998962402344,1.1260000467300415 39.132999420166016,9.01200008392334 C31.27199935913086,17.590999603271484 20.50200080871582,29.33799934387207 -0.028999999165534973,29.33799934387207 C-20.56599998474121,29.33799934387207 -31.336000442504883,17.590999603271484 -39.20199966430664,9.01200008392334 C-46.43199920654297,1.1260000467300415 -50.28499984741211,-2.6670000553131104 -58.71500015258789,-2.6670000553131104 C-67.14399719238281,-2.6670000553131104 -70.99299621582031,1.1260000467300415 -78.2229995727539,9.01200008392334 C-86.08699798583984,17.590999603271484 -96.85700225830078,29.33799934387207 -117.39099884033203,29.33799934387207 C-137.9250030517578,29.33799934387207 -148.69500732421875,17.590999603271484 -156.55799865722656,9.01200008392334 C-163.78799438476562,1.1260000467300415 -167.63800048828125,-2.6670000553131104 -176.0659942626953,-2.6670000553131104 C-184.49200439453125,-2.6670000553131104 -188.3419952392578,1.1260000467300415 -195.57200622558594,9.01200008392334 C-203.43499755859375,17.590999603271484 -214.20199584960938,29.33799934387207 -234.73699951171875,29.33799934387207 C-255.2729949951172,29.33799934387207 -266.0429992675781,17.590999603271484 -273.906005859375,9.01200008392334 C-281.1369934082031,1.1260000467300415 -284.9859924316406,-2.6670000553131104 -293.4150085449219,-2.6670000553131104 C-293.4150085449219,-2.6670000553131104 -293.4150085449219,-29.33799934387207 -293.4150085449219,-29.33799934387207 C-272.8800048828125,-29.33799934387207 -262.1099853515625,-17.590999603271484 -254.2469940185547,-9.01200008392334 C-247.01699829101562,-1.125 -243.16700744628906,2.6670000553131104 -234.73699951171875,2.6670000553131104 C-226.30799865722656,2.6670000553131104 -222.46099853515625,-1.125 -215.2310028076172,-9.01200008392334 C-207.3679962158203,-17.590999603271484 -196.6009979248047,-29.33799934387207 -176.0659942626953,-29.33799934387207 C-155.53199768066406,-29.33799934387207 -144.76199340820312,-17.590999603271484 -136.8990020751953,-9.01200008392334 C-129.66900634765625,-1.125 -125.81900024414062,2.6670000553131104 -117.39099884033203,2.6670000553131104 C-108.96299743652344,2.6670000553131104 -105.11299896240234,-1.125 -97.88300323486328,-9.01200008392334 C-90.0199966430664,-17.590999603271484 -79.25,-29.33799934387207 -58.71500015258789,-29.33799934387207 C-38.17900085449219,-29.33799934387207 -27.409000396728516,-17.590999603271484 -19.542999267578125,-9.01200008392334 C-12.312999725341797,-1.125 -8.460000038146973,2.6670000553131104 -0.028999999165534973,2.6670000553131104 C8.395999908447266,2.6670000553131104 12.243000030517578,-1.125 19.47100067138672,-9.01200008392334 C27.333999633789062,-17.590999603271484 38.104000091552734,-29.33799934387207 58.63800048828125,-29.33799934387207 C79.17500305175781,-29.33799934387207 89.94499969482422,-17.590999603271484 97.81099700927734,-9.01200008392334 C105.04299926757812,-1.125 108.89299774169922,2.6670000553131104 117.3270034790039,2.6670000553131104 C125.75499725341797,2.6670000553131104 129.6020050048828,-1.125 136.83200073242188,-9.01200008392334 C144.6929931640625,-17.590999603271484 155.46200561523438,-29.33799934387207 175.99400329589844,-29.33799934387207 C196.53599548339844,-29.33799934387207 207.31100463867188,-17.590999603271484 215.177001953125,-9.01200008392334 C222.41299438476562,-1.125 226.26699829101562,2.6670000553131104 234.70599365234375,2.6670000553131104 C243.14500427246094,2.6670000553131104 246.9969940185547,-1.125 254.23300170898438,-9.01200008392334 C262.0979919433594,-17.590999603271484 272.87298583984375,-29.33799934387207 293.4150085449219,-29.33799934387207 C293.4150085449219,-29.33799934387207 293.4150085449219,-2.6670000553131104 293.4150085449219,-2.6670000553131104 C284.97698974609375,-2.6670000553131104 281.12200927734375,1.1260000467300415 273.8869934082031,9.01200008392334 C266.02099609375,17.590999603271484 255.24600219726562,29.33799934387207 234.70599365234375,29.33799934387207z"/></g><g opacity="1" transform="matrix(1,0,0,1,72.81500244140625,52.430999755859375)"><path fill="rgb(255,255,255)" fill-opacity="1" d=" M8.486000061035156,16.87700080871582 C6.438000202178955,16.87700080871582 4.390999794006348,16.094999313354492 2.8289999961853027,14.532999992370605 C2.8289999961853027,14.532999992370605 -14.142000198364258,-2.437000036239624 -14.142000198364258,-2.437000036239624 C-17.26799964904785,-5.559999942779541 -17.26799964904785,-10.630000114440918 -14.142000198364258,-13.751999855041504 C-11.017000198364258,-16.878000259399414 -5.953999996185303,-16.878000259399414 -2.828000068664551,-13.751999855041504 C-2.828000068664551,-13.751999855041504 14.142999649047852,3.2190001010894775 14.142999649047852,3.2190001010894775 C17.26799964904785,6.341000080108643 17.26799964904785,11.40999984741211 14.142999649047852,14.532999992370605 C12.579999923706055,16.094999313354492 10.532999992370605,16.87700080871582 8.486000061035156,16.87700080871582z"/><path stroke-linecap="butt" stroke-linejoin="miter" fill-opacity="0" stroke-miterlimit="10" stroke="rgb(0,0,0)" stroke-opacity="1" stroke-width="6" d=" M8.486000061035156,16.87700080871582 C6.438000202178955,16.87700080871582 4.390999794006348,16.094999313354492 2.8289999961853027,14.532999992370605 C2.8289999961853027,14.532999992370605 -14.142000198364258,-2.437000036239624 -14.142000198364258,-2.437000036239624 C-17.26799964904785,-5.559999942779541 -17.26799964904785,-10.630000114440918 -14.142000198364258,-13.751999855041504 C-11.017000198364258,-16.878000259399414 -5.953999996185303,-16.878000259399414 -2.828000068664551,-13.751999855041504 C-2.828000068664551,-13.751999855041504 14.142999649047852,3.2190001010894775 14.142999649047852,3.2190001010894775 C17.26799964904785,6.341000080108643 17.26799964904785,11.40999984741211 14.142999649047852,14.532999992370605 C12.579999923706055,16.094999313354492 10.532999992370605,16.87700080871582 8.486000061035156,16.87700080871582z"/></g><g opacity="1" transform="matrix(1,0,0,1,308.4159851074219,47.986000061035156)"><path fill="rgb(255,255,255)" fill-opacity="1" d=" M8.486000061035156,16.87700080871582 C6.439000129699707,16.87700080871582 4.390999794006348,16.09600067138672 2.8289999961853027,14.532999992370605 C2.8289999961853027,14.532999992370605 -14.142000198364258,-2.437000036239624 -14.142000198364258,-2.437000036239624 C-17.26799964904785,-5.559999942779541 -17.26799964904785,-10.628000259399414 -14.142000198364258,-13.75100040435791 C-11.017000198364258,-16.87700080871582 -5.953999996185303,-16.87700080871582 -2.828000068664551,-13.75100040435791 C-2.828000068664551,-13.75100040435791 14.142999649047852,3.2200000286102295 14.142999649047852,3.2200000286102295 C17.268999099731445,6.3429999351501465 17.268999099731445,11.40999984741211 14.142999649047852,14.532999992370605 C12.581000328063965,16.09600067138672 10.532999992370605,16.87700080871582 8.486000061035156,16.87700080871582z"/><path stroke-linecap="butt" stroke-linejoin="miter" fill-opacity="0" stroke-miterlimit="10" stroke="rgb(0,0,0)" stroke-opacity="1" stroke-width="6" d=" M8.486000061035156,16.87700080871582 C6.439000129699707,16.87700080871582 4.390999794006348,16.09600067138672 2.8289999961853027,14.532999992370605 C2.8289999961853027,14.532999992370605 -14.142000198364258,-2.437000036239624 -14.142000198364258,-2.437000036239624 C-17.26799964904785,-5.559999942779541 -17.26799964904785,-10.628000259399414 -14.142000198364258,-13.75100040435791 C-11.017000198364258,-16.87700080871582 -5.953999996185303,-16.87700080871582 -2.828000068664551,-13.75100040435791 C-2.828000068664551,-13.75100040435791 14.142999649047852,3.2200000286102295 14.142999649047852,3.2200000286102295 C17.268999099731445,6.3429999351501465 17.268999099731445,11.40999984741211 14.142999649047852,14.532999992370605 C12.581000328063965,16.09600067138672 10.532999992370605,16.87700080871582 8.486000061035156,16.87700080871582z"/></g><g opacity="1" transform="matrix(1,0,0,1,549.7849731445312,47.986000061035156)"><path fill="rgb(255,255,255)" fill-opacity="1" d=" M8.486000061035156,16.87700080871582 C6.439000129699707,16.87700080871582 4.390999794006348,16.09600067138672 2.828000068664551,14.532999992370605 C2.828000068664551,14.532999992370605 -14.142999649047852,-2.437000036239624 -14.142999649047852,-2.437000036239624 C-17.268999099731445,-5.559999942779541 -17.268999099731445,-10.628000259399414 -14.142999649047852,-13.75100040435791 C-11.017999649047852,-16.87700080871582 -5.953999996185303,-16.87700080871582 -2.828000068664551,-13.75100040435791 C-2.828000068664551,-13.75100040435791 14.142999649047852,3.2200000286102295 14.142999649047852,3.2200000286102295 C17.268999099731445,6.3429999351501465 17.268999099731445,11.40999984741211 14.142999649047852,14.532999992370605 C12.579999923706055,16.09600067138672 10.532999992370605,16.87700080871582 8.486000061035156,16.87700080871582z"/><path stroke-linecap="butt" stroke-linejoin="miter" fill-opacity="0" stroke-miterlimit="10" stroke="rgb(0,0,0)" stroke-opacity="1" stroke-width="6" d=" M8.486000061035156,16.87700080871582 C6.439000129699707,16.87700080871582 4.390999794006348,16.09600067138672 2.828000068664551,14.532999992370605 C2.828000068664551,14.532999992370605 -14.142999649047852,-2.437000036239624 -14.142999649047852,-2.437000036239624 C-17.268999099731445,-5.559999942779541 -17.268999099731445,-10.628000259399414 -14.142999649047852,-13.75100040435791 C-11.017999649047852,-16.87700080871582 -5.953999996185303,-16.87700080871582 -2.828000068664551,-13.75100040435791 C-2.828000068664551,-13.75100040435791 14.142999649047852,3.2200000286102295 14.142999649047852,3.2200000286102295 C17.268999099731445,6.3429999351501465 17.268999099731445,11.40999984741211 14.142999649047852,14.532999992370605 C12.579999923706055,16.09600067138672 10.532999992370605,16.87700080871582 8.486000061035156,16.87700080871582z"/></g><g opacity="1" transform="matrix(1,0,0,1,171.88800048828125,44.9109992980957)"><path fill="rgb(255,255,255)" fill-opacity="1" d=" M-16.87700080871582,8.486000061035156 C-16.87700080871582,6.438000202178955 -16.09600067138672,4.390999794006348 -14.532999992370605,2.8289999961853027 C-14.532999992370605,2.8289999961853027 2.437000036239624,-14.142999649047852 2.437000036239624,-14.142999649047852 C5.559999942779541,-17.26799964904785 10.630000114440918,-17.26799964904785 13.751999855041504,-14.142999649047852 C16.878000259399414,-11.017000198364258 16.878000259399414,-5.953999996185303 13.751999855041504,-2.8289999961853027 C13.751999855041504,-2.8289999961853027 -3.2190001010894775,14.142999649047852 -3.2190001010894775,14.142999649047852 C-6.3420000076293945,17.26799964904785 -11.40999984741211,17.26799964904785 -14.532999992370605,14.142999649047852 C-16.09600067138672,12.579999923706055 -16.87700080871582,10.532999992370605 -16.87700080871582,8.486000061035156z"/><path stroke-linecap="butt" stroke-linejoin="miter" fill-opacity="0" stroke-miterlimit="10" stroke="rgb(0,0,0)" stroke-opacity="1" stroke-width="6" d=" M-16.87700080871582,8.486000061035156 C-16.87700080871582,6.438000202178955 -16.09600067138672,4.390999794006348 -14.532999992370605,2.8289999961853027 C-14.532999992370605,2.8289999961853027 2.437000036239624,-14.142999649047852 2.437000036239624,-14.142999649047852 C5.559999942779541,-17.26799964904785 10.630000114440918,-17.26799964904785 13.751999855041504,-14.142999649047852 C16.878000259399414,-11.017000198364258 16.878000259399414,-5.953999996185303 13.751999855041504,-2.8289999961853027 C13.751999855041504,-2.8289999961853027 -3.2190001010894775,14.142999649047852 -3.2190001010894775,14.142999649047852 C-6.3420000076293945,17.26799964904785 -11.40999984741211,17.26799964904785 -14.532999992370605,14.142999649047852 C-16.09600067138672,12.579999923706055 -16.87700080871582,10.532999992370605 -16.87700080871582,8.486000061035156z"/></g><g opacity="1" transform="matrix(1,0,0,1,452.4840087890625,44.9109992980957)"><path fill="rgb(255,255,255)" fill-opacity="1" d=" M-16.87700080871582,8.486000061035156 C-16.87700080871582,6.438000202178955 -16.09600067138672,4.390999794006348 -14.532999992370605,2.8289999961853027 C-14.532999992370605,2.8289999961853027 2.437000036239624,-14.142999649047852 2.437000036239624,-14.142999649047852 C5.559999942779541,-17.26799964904785 10.628999710083008,-17.26799964904785 13.75100040435791,-14.142999649047852 C16.87700080871582,-11.017000198364258 16.87700080871582,-5.953999996185303 13.75100040435791,-2.8289999961853027 C13.75100040435791,-2.8289999961853027 -3.2200000286102295,14.142999649047852 -3.2200000286102295,14.142999649047852 C-6.3420000076293945,17.26799964904785 -11.40999984741211,17.26799964904785 -14.532999992370605,14.142999649047852 C-16.09600067138672,12.579999923706055 -16.87700080871582,10.532999992370605 -16.87700080871582,8.486000061035156z"/><path stroke-linecap="butt" stroke-linejoin="miter" fill-opacity="0" stroke-miterlimit="10" stroke="rgb(0,0,0)" stroke-opacity="1" stroke-width="6" d=" M-16.87700080871582,8.486000061035156 C-16.87700080871582,6.438000202178955 -16.09600067138672,4.390999794006348 -14.532999992370605,2.8289999961853027 C-14.532999992370605,2.8289999961853027 2.437000036239624,-14.142999649047852 2.437000036239624,-14.142999649047852 C5.559999942779541,-17.26799964904785 10.628999710083008,-17.26799964904785 13.75100040435791,-14.142999649047852 C16.87700080871582,-11.017000198364258 16.87700080871582,-5.953999996185303 13.75100040435791,-2.8289999961853027 C13.75100040435791,-2.8289999961853027 -3.2200000286102295,14.142999649047852 -3.2200000286102295,14.142999649047852 C-6.3420000076293945,17.26799964904785 -11.40999984741211,17.26799964904785 -14.532999992370605,14.142999649047852 C-16.09600067138672,12.579999923706055 -16.87700080871582,10.532999992370605 -16.87700080871582,8.486000061035156z"/></g><g opacity="1" transform="matrix(1,0,0,1,308.4159851074219,239.03199768066406)"><path fill="rgb(255,200,39)" fill-opacity="1" d=" M234.70599365234375,29.33799934387207 C214.16400146484375,29.33799934387207 203.38900756835938,17.590999603271484 195.5229949951172,9.01200008392334 C188.28799438476562,1.125 184.43299865722656,-2.6670000553131104 175.99400329589844,-2.6670000553131104 C167.5679931640625,-2.6670000553131104 163.7209930419922,1.125 156.49400329589844,9.01200008392334 C148.63099670410156,17.590999603271484 137.86099243164062,29.33799934387207 117.3270034790039,29.33799934387207 C96.78700256347656,29.33799934387207 86.01699829101562,17.590999603271484 78.1520004272461,9.01200008392334 C70.9209976196289,1.125 67.06900024414062,-2.6670000553131104 58.63800048828125,-2.6670000553131104 C50.209999084472656,-2.6670000553131104 46.362998962402344,1.125 39.132999420166016,9.01200008392334 C31.27199935913086,17.590999603271484 20.50200080871582,29.33799934387207 -0.028999999165534973,29.33799934387207 C-20.56599998474121,29.33799934387207 -31.336000442504883,17.590999603271484 -39.20199966430664,9.01200008392334 C-46.43199920654297,1.125 -50.28499984741211,-2.6670000553131104 -58.71500015258789,-2.6670000553131104 C-67.14399719238281,-2.6670000553131104 -70.99299621582031,1.125 -78.2229995727539,9.01200008392334 C-86.08699798583984,17.590999603271484 -96.85700225830078,29.33799934387207 -117.39099884033203,29.33799934387207 C-137.9250030517578,29.33799934387207 -148.69500732421875,17.590999603271484 -156.55799865722656,9.01200008392334 C-163.78799438476562,1.125 -167.63800048828125,-2.6670000553131104 -176.0659942626953,-2.6670000553131104 C-184.49200439453125,-2.6670000553131104 -188.3419952392578,1.125 -195.57200622558594,9.01200008392334 C-203.43499755859375,17.590999603271484 -214.20199584960938,29.33799934387207 -234.73699951171875,29.33799934387207 C-255.2729949951172,29.33799934387207 -266.0429992675781,17.590999603271484 -273.906005859375,9.01200008392334 C-281.1369934082031,1.125 -284.9859924316406,-2.6670000553131104 -293.4150085449219,-2.6670000553131104 C-293.4150085449219,-2.6670000553131104 -293.4150085449219,-29.33799934387207 -293.4150085449219,-29.33799934387207 C-272.8800048828125,-29.33799934387207 -262.1099853515625,-17.590999603271484 -254.2469940185547,-9.01200008392334 C-247.01699829101562,-1.125 -243.16700744628906,2.6670000553131104 -234.73699951171875,2.6670000553131104 C-226.30799865722656,2.6670000553131104 -222.46099853515625,-1.125 -215.2310028076172,-9.01200008392334 C-207.3679962158203,-17.590999603271484 -196.6009979248047,-29.33799934387207 -176.0659942626953,-29.33799934387207 C-155.53199768066406,-29.33799934387207 -144.76199340820312,-17.590999603271484 -136.8990020751953,-9.01200008392334 C-129.66900634765625,-1.125 -125.81900024414062,2.6670000553131104 -117.39099884033203,2.6670000553131104 C-108.96299743652344,2.6670000553131104 -105.11299896240234,-1.125 -97.88300323486328,-9.01200008392334 C-90.0199966430664,-17.590999603271484 -79.25,-29.33799934387207 -58.71500015258789,-29.33799934387207 C-38.17900085449219,-29.33799934387207 -27.409000396728516,-17.590999603271484 -19.542999267578125,-9.01200008392334 C-12.312999725341797,-1.125 -8.460000038146973,2.6670000553131104 -0.028999999165534973,2.6670000553131104 C8.395999908447266,2.6670000553131104 12.243000030517578,-1.125 19.47100067138672,-9.01200008392334 C27.333999633789062,-17.590999603271484 38.104000091552734,-29.33799934387207 58.63800048828125,-29.33799934387207 C79.17500305175781,-29.33799934387207 89.94499969482422,-17.590999603271484 97.81099700927734,-9.01200008392334 C105.04299926757812,-1.125 108.89299774169922,2.6670000553131104 117.3270034790039,2.6670000553131104 C125.75499725341797,2.6670000553131104 129.6020050048828,-1.125 136.83200073242188,-9.01200008392334 C144.6929931640625,-17.590999603271484 155.46200561523438,-29.33799934387207 175.99400329589844,-29.33799934387207 C196.53599548339844,-29.33799934387207 207.31100463867188,-17.590999603271484 215.177001953125,-9.01200008392334 C222.41299438476562,-1.125 226.26699829101562,2.6670000553131104 234.70599365234375,2.6670000553131104 C243.14500427246094,2.6670000553131104 246.9969940185547,-1.125 254.23300170898438,-9.01200008392334 C262.0979919433594,-17.590999603271484 272.87298583984375,-29.33799934387207 293.4150085449219,-29.33799934387207 C293.4150085449219,-29.33799934387207 293.4150085449219,-2.6670000553131104 293.4150085449219,-2.6670000553131104 C284.97698974609375,-2.6670000553131104 281.12200927734375,1.125 273.8869934082031,9.01200008392334 C266.02099609375,17.590999603271484 255.24600219726562,29.33799934387207 234.70599365234375,29.33799934387207z"/><path stroke-linecap="butt" stroke-linejoin="miter" fill-opacity="0" stroke-miterlimit="10" stroke="rgb(0,0,0)" stroke-opacity="1" stroke-width="6" d=" M234.70599365234375,29.33799934387207 C214.16400146484375,29.33799934387207 203.38900756835938,17.590999603271484 195.5229949951172,9.01200008392334 C188.28799438476562,1.125 184.43299865722656,-2.6670000553131104 175.99400329589844,-2.6670000553131104 C167.5679931640625,-2.6670000553131104 163.7209930419922,1.125 156.49400329589844,9.01200008392334 C148.63099670410156,17.590999603271484 137.86099243164062,29.33799934387207 117.3270034790039,29.33799934387207 C96.78700256347656,29.33799934387207 86.01699829101562,17.590999603271484 78.1520004272461,9.01200008392334 C70.9209976196289,1.125 67.06900024414062,-2.6670000553131104 58.63800048828125,-2.6670000553131104 C50.209999084472656,-2.6670000553131104 46.362998962402344,1.125 39.132999420166016,9.01200008392334 C31.27199935913086,17.590999603271484 20.50200080871582,29.33799934387207 -0.028999999165534973,29.33799934387207 C-20.56599998474121,29.33799934387207 -31.336000442504883,17.590999603271484 -39.20199966430664,9.01200008392334 C-46.43199920654297,1.125 -50.28499984741211,-2.6670000553131104 -58.71500015258789,-2.6670000553131104 C-67.14399719238281,-2.6670000553131104 -70.99299621582031,1.125 -78.2229995727539,9.01200008392334 C-86.08699798583984,17.590999603271484 -96.85700225830078,29.33799934387207 -117.39099884033203,29.33799934387207 C-137.9250030517578,29.33799934387207 -148.69500732421875,17.590999603271484 -156.55799865722656,9.01200008392334 C-163.78799438476562,1.125 -167.63800048828125,-2.6670000553131104 -176.0659942626953,-2.6670000553131104 C-184.49200439453125,-2.6670000553131104 -188.3419952392578,1.125 -195.57200622558594,9.01200008392334 C-203.43499755859375,17.590999603271484 -214.20199584960938,29.33799934387207 -234.73699951171875,29.33799934387207 C-255.2729949951172,29.33799934387207 -266.0429992675781,17.590999603271484 -273.906005859375,9.01200008392334 C-281.1369934082031,1.125 -284.9859924316406,-2.6670000553131104 -293.4150085449219,-2.6670000553131104 C-293.4150085449219,-2.6670000553131104 -293.4150085449219,-29.33799934387207 -293.4150085449219,-29.33799934387207 C-272.8800048828125,-29.33799934387207 -262.1099853515625,-17.590999603271484 -254.2469940185547,-9.01200008392334 C-247.01699829101562,-1.125 -243.16700744628906,2.6670000553131104 -234.73699951171875,2.6670000553131104 C-226.30799865722656,2.6670000553131104 -222.46099853515625,-1.125 -215.2310028076172,-9.01200008392334 C-207.3679962158203,-17.590999603271484 -196.6009979248047,-29.33799934387207 -176.0659942626953,-29.33799934387207 C-155.53199768066406,-29.33799934387207 -144.76199340820312,-17.590999603271484 -136.8990020751953,-9.01200008392334 C-129.66900634765625,-1.125 -125.81900024414062,2.6670000553131104 -117.39099884033203,2.6670000553131104 C-108.96299743652344,2.6670000553131104 -105.11299896240234,-1.125 -97.88300323486328,-9.01200008392334 C-90.0199966430664,-17.590999603271484 -79.25,-29.33799934387207 -58.71500015258789,-29.33799934387207 C-38.17900085449219,-29.33799934387207 -27.409000396728516,-17.590999603271484 -19.542999267578125,-9.01200008392334 C-12.312999725341797,-1.125 -8.460000038146973,2.6670000553131104 -0.028999999165534973,2.6670000553131104 C8.395999908447266,2.6670000553131104 12.243000030517578,-1.125 19.47100067138672,-9.01200008392334 C27.333999633789062,-17.590999603271484 38.104000091552734,-29.33799934387207 58.63800048828125,-29.33799934387207 C79.17500305175781,-29.33799934387207 89.94499969482422,-17.590999603271484 97.81099700927734,-9.01200008392334 C105.04299926757812,-1.125 108.89299774169922,2.6670000553131104 117.3270034790039,2.6670000553131104 C125.75499725341797,2.6670000553131104 129.6020050048828,-1.125 136.83200073242188,-9.01200008392334 C144.6929931640625,-17.590999603271484 155.46200561523438,-29.33799934387207 175.99400329589844,-29.33799934387207 C196.53599548339844,-29.33799934387207 207.31100463867188,-17.590999603271484 215.177001953125,-9.01200008392334 C222.41299438476562,-1.125 226.26699829101562,2.6670000553131104 234.70599365234375,2.6670000553131104 C243.14500427246094,2.6670000553131104 246.9969940185547,-1.125 254.23300170898438,-9.01200008392334 C262.0979919433594,-17.590999603271484 272.87298583984375,-29.33799934387207 293.4150085449219,-29.33799934387207 C293.4150085449219,-29.33799934387207 293.4150085449219,-2.6670000553131104 293.4150085449219,-2.6670000553131104 C284.97698974609375,-2.6670000553131104 281.12200927734375,1.125 273.8869934082031,9.01200008392334 C266.02099609375,17.590999603271484 255.24600219726562,29.33799934387207 234.70599365234375,29.33799934387207z"/></g></g></g></svg>